%TF.GenerationSoftware,KiCad,Pcbnew,9.0.7*%
%TF.CreationDate,2026-04-16T19:52:42-05:00*%
%TF.ProjectId,HAND_Project_ADS1220_Amplifier,48414e44-5f50-4726-9f6a-6563745f4144,v01*%
%TF.SameCoordinates,Original*%
%TF.FileFunction,Copper,L1,Top*%
%TF.FilePolarity,Positive*%
%FSLAX46Y46*%
G04 Gerber Fmt 4.6, Leading zero omitted, Abs format (unit mm)*
G04 Created by KiCad (PCBNEW 9.0.7) date 2026-04-16 19:52:42*
%MOMM*%
%LPD*%
G01*
G04 APERTURE LIST*
G04 Aperture macros list*
%AMRoundRect*
0 Rectangle with rounded corners*
0 $1 Rounding radius*
0 $2 $3 $4 $5 $6 $7 $8 $9 X,Y pos of 4 corners*
0 Add a 4 corners polygon primitive as box body*
4,1,4,$2,$3,$4,$5,$6,$7,$8,$9,$2,$3,0*
0 Add four circle primitives for the rounded corners*
1,1,$1+$1,$2,$3*
1,1,$1+$1,$4,$5*
1,1,$1+$1,$6,$7*
1,1,$1+$1,$8,$9*
0 Add four rect primitives between the rounded corners*
20,1,$1+$1,$2,$3,$4,$5,0*
20,1,$1+$1,$4,$5,$6,$7,0*
20,1,$1+$1,$6,$7,$8,$9,0*
20,1,$1+$1,$8,$9,$2,$3,0*%
G04 Aperture macros list end*
%TA.AperFunction,ComponentPad*%
%ADD10RoundRect,0.250000X-1.050000X-1.050000X1.050000X-1.050000X1.050000X1.050000X-1.050000X1.050000X0*%
%TD*%
%TA.AperFunction,ComponentPad*%
%ADD11C,2.600000*%
%TD*%
%TA.AperFunction,SMDPad,CuDef*%
%ADD12RoundRect,0.250000X0.450000X-0.350000X0.450000X0.350000X-0.450000X0.350000X-0.450000X-0.350000X0*%
%TD*%
%TA.AperFunction,SMDPad,CuDef*%
%ADD13RoundRect,0.250000X0.350000X0.450000X-0.350000X0.450000X-0.350000X-0.450000X0.350000X-0.450000X0*%
%TD*%
%TA.AperFunction,SMDPad,CuDef*%
%ADD14RoundRect,0.250000X0.325000X0.450000X-0.325000X0.450000X-0.325000X-0.450000X0.325000X-0.450000X0*%
%TD*%
%TA.AperFunction,SMDPad,CuDef*%
%ADD15RoundRect,0.237500X-0.237500X0.300000X-0.237500X-0.300000X0.237500X-0.300000X0.237500X0.300000X0*%
%TD*%
%TA.AperFunction,SMDPad,CuDef*%
%ADD16RoundRect,0.237500X0.237500X-0.300000X0.237500X0.300000X-0.237500X0.300000X-0.237500X-0.300000X0*%
%TD*%
%TA.AperFunction,SMDPad,CuDef*%
%ADD17RoundRect,0.051250X-0.733750X-0.153750X0.733750X-0.153750X0.733750X0.153750X-0.733750X0.153750X0*%
%TD*%
%TA.AperFunction,SMDPad,CuDef*%
%ADD18RoundRect,0.250000X-1.000000X-0.650000X1.000000X-0.650000X1.000000X0.650000X-1.000000X0.650000X0*%
%TD*%
%TA.AperFunction,ComponentPad*%
%ADD19R,1.700000X1.700000*%
%TD*%
%TA.AperFunction,ComponentPad*%
%ADD20C,1.700000*%
%TD*%
%TA.AperFunction,ViaPad*%
%ADD21C,0.762000*%
%TD*%
%TA.AperFunction,Conductor*%
%ADD22C,0.254000*%
%TD*%
G04 APERTURE END LIST*
D10*
%TO.P,Strain Gauge,1,Pin_1*%
%TO.N,GND*%
X131050000Y-91440000D03*
D11*
%TO.P,Strain Gauge,2,Pin_2*%
%TO.N,5V*%
X136050000Y-91440000D03*
%TO.P,Strain Gauge,3,Pin_3*%
%TO.N,Net-(J1-Pin_3)*%
X141050000Y-91440000D03*
%TO.P,Strain Gauge,4,Pin_4*%
%TO.N,Net-(J1-Pin_4)*%
X146050000Y-91440000D03*
%TD*%
D12*
%TO.P,R3,2*%
%TO.N,/AIN0*%
X140946000Y-81716500D03*
%TO.P,R3,1*%
%TO.N,Net-(J1-Pin_3)*%
X140946000Y-83716500D03*
%TD*%
%TO.P,R4,1*%
%TO.N,Net-(J1-Pin_4)*%
X146050000Y-83804000D03*
%TO.P,R4,2*%
%TO.N,/AIN3*%
X146050000Y-81804000D03*
%TD*%
D13*
%TO.P,R2,1*%
%TO.N,/AVDD*%
X135350000Y-73914000D03*
%TO.P,R2,2*%
%TO.N,Net-(D4-A)*%
X133350000Y-73914000D03*
%TD*%
%TO.P,R1,1*%
%TO.N,/DVDD*%
X135350000Y-78232000D03*
%TO.P,R1,2*%
%TO.N,Net-(D3-A)*%
X133350000Y-78232000D03*
%TD*%
D14*
%TO.P,5,1,K*%
%TO.N,GND*%
X135400000Y-75946000D03*
%TO.P,5,2,A*%
%TO.N,Net-(D4-A)*%
X133350000Y-75946000D03*
%TD*%
%TO.P,3.3,1,K*%
%TO.N,GND*%
X135400000Y-80264000D03*
%TO.P,3.3,2,A*%
%TO.N,Net-(D3-A)*%
X133350000Y-80264000D03*
%TD*%
D15*
%TO.P,C4,1*%
%TO.N,/AIN3*%
X144018000Y-81788000D03*
%TO.P,C4,2*%
%TO.N,GND*%
X144018000Y-83513000D03*
%TD*%
D16*
%TO.P,C2,1*%
%TO.N,5V*%
X137160000Y-76046500D03*
%TO.P,C2,2*%
%TO.N,GND*%
X137160000Y-74321500D03*
%TD*%
D15*
%TO.P,C3,1*%
%TO.N,/AIN0*%
X138938000Y-81851500D03*
%TO.P,C3,2*%
%TO.N,GND*%
X138938000Y-83576500D03*
%TD*%
%TO.P,C1,1*%
%TO.N,3.3V*%
X137160000Y-78131500D03*
%TO.P,C1,2*%
%TO.N,GND*%
X137160000Y-79856500D03*
%TD*%
D17*
%TO.P,ADS1220,1,SCLK*%
%TO.N,/SCLK*%
X135560000Y-67829000D03*
%TO.P,ADS1220,2,~{CS}*%
%TO.N,/CS*%
X135560000Y-68479000D03*
%TO.P,ADS1220,3,CLK*%
%TO.N,/CLK*%
X135560000Y-69129000D03*
%TO.P,ADS1220,4,DGND*%
%TO.N,GND*%
X135560000Y-69779000D03*
%TO.P,ADS1220,5,AVSS*%
X135560000Y-70429000D03*
%TO.P,ADS1220,6,AIN3/REFN1*%
%TO.N,/AIN3*%
X135560000Y-71079000D03*
%TO.P,ADS1220,7,AIN2*%
%TO.N,unconnected-(U1-AIN2-Pad7)*%
X135560000Y-71729000D03*
%TO.P,ADS1220,8,REFN0*%
%TO.N,unconnected-(U1-REFN0-Pad8)*%
X135560000Y-72379000D03*
%TO.P,ADS1220,9,REFP0*%
%TO.N,unconnected-(U1-REFP0-Pad9)*%
X141300000Y-72379000D03*
%TO.P,ADS1220,10,AIN1*%
%TO.N,unconnected-(U1-AIN1-Pad10)*%
X141300000Y-71729000D03*
%TO.P,ADS1220,11,AIN0/REFP1*%
%TO.N,/AIN0*%
X141300000Y-71079000D03*
%TO.P,ADS1220,12,AVDD*%
%TO.N,/AVDD*%
X141300000Y-70429000D03*
%TO.P,ADS1220,13,DVDD*%
%TO.N,/DVDD*%
X141300000Y-69779000D03*
%TO.P,ADS1220,14,~{DRDY}*%
%TO.N,/DRDY*%
X141300000Y-69129000D03*
%TO.P,ADS1220,15,DOUT/~{DRDY}*%
%TO.N,/DOUT*%
X141300000Y-68479000D03*
%TO.P,ADS1220,16,DIN*%
%TO.N,/DIN*%
X141300000Y-67829000D03*
%TD*%
D18*
%TO.P,D1,1,K*%
%TO.N,/DVDD*%
X139732000Y-78994000D03*
%TO.P,D1,2,A*%
%TO.N,3.3V*%
X143732000Y-78994000D03*
%TD*%
%TO.P,D2,1,K*%
%TO.N,/AVDD*%
X139764000Y-75184000D03*
%TO.P,D2,2,A*%
%TO.N,5V*%
X143764000Y-75184000D03*
%TD*%
D19*
%TO.P,J7,1,Pin_1*%
%TO.N,/SCLK*%
X129540000Y-68844000D03*
D20*
%TO.P,J7,2,Pin_2*%
%TO.N,/CS*%
X129540000Y-71384000D03*
%TO.P,J7,3,Pin_3*%
%TO.N,/CLK*%
X129540000Y-73924000D03*
%TO.P,J7,4,Pin_4*%
%TO.N,GND*%
X129540000Y-76464000D03*
%TD*%
D19*
%TO.P,J2,1,Pin_1*%
%TO.N,/DIN*%
X147320000Y-68834000D03*
D20*
%TO.P,J2,2,Pin_2*%
%TO.N,/DOUT*%
X147320000Y-71374000D03*
%TO.P,J2,3,Pin_3*%
%TO.N,/DRDY*%
X147320000Y-73914000D03*
%TO.P,J2,4,Pin_4*%
%TO.N,5V*%
X147320000Y-76454000D03*
%TO.P,J2,5,Pin_5*%
%TO.N,3.3V*%
X147320000Y-78994000D03*
%TD*%
D21*
%TO.N,/DVDD*%
X139938760Y-78994000D03*
X143002000Y-70866000D03*
%TO.N,/AIN0*%
X139192000Y-81851500D03*
X140076232Y-71115416D03*
%TO.N,/AIN3*%
X144018000Y-81788000D03*
X137287000Y-71120000D03*
%TD*%
D22*
%TO.N,Net-(J1-Pin_4)*%
X146050000Y-83804000D02*
X146050000Y-91440000D01*
%TO.N,Net-(J1-Pin_3)*%
X140946000Y-91336000D02*
X141050000Y-91440000D01*
X140946000Y-83716500D02*
X140946000Y-91336000D01*
%TO.N,GND*%
X134333240Y-79197240D02*
X134333240Y-77012760D01*
X135400000Y-80264000D02*
X134333240Y-79197240D01*
X134333240Y-77012760D02*
X135400000Y-75946000D01*
X130088760Y-77012760D02*
X134333240Y-77012760D01*
X129540000Y-76464000D02*
X130088760Y-77012760D01*
X129540000Y-75644759D02*
X129540000Y-76464000D01*
X134295000Y-70889759D02*
X129540000Y-75644759D01*
X134295000Y-70429000D02*
X134295000Y-70889759D01*
X135560000Y-70429000D02*
X134295000Y-70429000D01*
X139764760Y-82749740D02*
X143254740Y-82749740D01*
X138938000Y-83576500D02*
X139764760Y-82749740D01*
X143254740Y-82749740D02*
X144018000Y-83513000D01*
X137160000Y-81798500D02*
X138938000Y-83576500D01*
X137160000Y-79856500D02*
X137160000Y-81798500D01*
%TO.N,/AIN0*%
X139327000Y-81716500D02*
X139192000Y-81851500D01*
X140946000Y-81716500D02*
X139327000Y-81716500D01*
%TO.N,Net-(J1-Pin_3)*%
X140946000Y-90701000D02*
X141050000Y-90805000D01*
%TO.N,/AIN3*%
X144034000Y-81804000D02*
X144018000Y-81788000D01*
X146050000Y-81804000D02*
X144034000Y-81804000D01*
X144272000Y-81788000D02*
X144018000Y-81788000D01*
X144319000Y-81741000D02*
X144272000Y-81788000D01*
%TO.N,3.3V*%
X143732000Y-78994000D02*
X147320000Y-78994000D01*
X138115240Y-79906398D02*
X138469602Y-80260760D01*
X137160000Y-78131500D02*
X138115240Y-79086740D01*
X142465240Y-80260760D02*
X143732000Y-78994000D01*
X138469602Y-80260760D02*
X142465240Y-80260760D01*
X138115240Y-79086740D02*
X138115240Y-79906398D01*
%TO.N,GND*%
X137006500Y-74321500D02*
X135382000Y-75946000D01*
X135382000Y-75946000D02*
X135535500Y-75946000D01*
X135382000Y-79756000D02*
X137059500Y-79756000D01*
X135560000Y-69779000D02*
X135560000Y-70429000D01*
X137160000Y-74321500D02*
X137006500Y-74321500D01*
X129540000Y-77050134D02*
X129540000Y-76464000D01*
%TO.N,5V*%
X137160000Y-76046500D02*
X137821500Y-76708000D01*
X137821500Y-76708000D02*
X138557000Y-76708000D01*
%TO.N,/DVDD*%
X139732000Y-78994000D02*
X137965240Y-77227240D01*
X143002000Y-70866000D02*
X143002000Y-70650924D01*
X143002000Y-70650924D02*
X142130076Y-69779000D01*
X139732000Y-78994000D02*
X139938760Y-78994000D01*
X137965240Y-77227240D02*
X136170260Y-77227240D01*
X136170260Y-77227240D02*
X135419500Y-77978000D01*
X142130076Y-69779000D02*
X141300000Y-69779000D01*
%TO.N,/AVDD*%
X139328472Y-70805683D02*
X139328472Y-73152000D01*
X139328472Y-73152000D02*
X139328472Y-74748472D01*
X139328472Y-74748472D02*
X139764000Y-75184000D01*
X136435500Y-73152000D02*
X139328472Y-73152000D01*
X139766499Y-70367656D02*
X139328472Y-70805683D01*
X135419500Y-74168000D02*
X136435500Y-73152000D01*
X141300000Y-70429000D02*
X141238656Y-70367656D01*
X141238656Y-70367656D02*
X139766499Y-70367656D01*
%TO.N,Net-(D3-A)*%
X133594500Y-79718500D02*
X133632000Y-79756000D01*
X133594500Y-77978000D02*
X133594500Y-79718500D01*
%TO.N,Net-(D4-A)*%
X133594500Y-75908500D02*
X133632000Y-75946000D01*
X133594500Y-74168000D02*
X133594500Y-75908500D01*
%TO.N,/DOUT*%
X141300000Y-68479000D02*
X144425000Y-68479000D01*
X144425000Y-68479000D02*
X147320000Y-71374000D01*
%TO.N,/DIN*%
X141300000Y-67829000D02*
X146315000Y-67829000D01*
X146315000Y-67829000D02*
X147320000Y-68834000D01*
%TO.N,/DRDY*%
X142535000Y-69129000D02*
X147320000Y-73914000D01*
X141300000Y-69129000D02*
X142535000Y-69129000D01*
%TO.N,/AIN0*%
X141300000Y-71079000D02*
X140112648Y-71079000D01*
X140112648Y-71079000D02*
X140076232Y-71115416D01*
%TO.N,/SCLK*%
X129540000Y-68834000D02*
X130556000Y-67818000D01*
X130567000Y-67829000D02*
X135560000Y-67829000D01*
X130556000Y-67818000D02*
X130567000Y-67829000D01*
X129540000Y-68844000D02*
X129540000Y-68834000D01*
%TO.N,/CLK*%
X129540000Y-73924000D02*
X134335000Y-69129000D01*
X134335000Y-69129000D02*
X135560000Y-69129000D01*
%TO.N,/CS*%
X129540000Y-71384000D02*
X132445000Y-68479000D01*
X132445000Y-68479000D02*
X135560000Y-68479000D01*
%TO.N,/AIN3*%
X135601000Y-71120000D02*
X135560000Y-71079000D01*
X137287000Y-71120000D02*
X135601000Y-71120000D01*
%TD*%
%TA.AperFunction,Conductor*%
%TO.N,5V*%
G36*
X143892786Y-71374456D02*
G01*
X143897606Y-71379025D01*
X145976877Y-73458296D01*
X146010362Y-73519619D01*
X146007128Y-73584293D01*
X146002754Y-73597755D01*
X145973335Y-73783500D01*
X145969500Y-73807713D01*
X145969500Y-74020287D01*
X145979534Y-74083644D01*
X146000320Y-74214880D01*
X146002754Y-74230243D01*
X146051836Y-74381302D01*
X146068444Y-74432414D01*
X146164951Y-74621820D01*
X146289890Y-74793786D01*
X146440213Y-74944109D01*
X146612179Y-75069048D01*
X146612181Y-75069049D01*
X146612184Y-75069051D01*
X146621493Y-75073794D01*
X146672290Y-75121766D01*
X146689087Y-75189587D01*
X146666552Y-75255722D01*
X146621505Y-75294760D01*
X146612446Y-75299376D01*
X146612440Y-75299380D01*
X146558282Y-75338727D01*
X146558282Y-75338728D01*
X147190591Y-75971037D01*
X147127007Y-75988075D01*
X147012993Y-76053901D01*
X146919901Y-76146993D01*
X146854075Y-76261007D01*
X146837037Y-76324591D01*
X146204728Y-75692282D01*
X146204727Y-75692282D01*
X146165380Y-75746439D01*
X146068904Y-75935782D01*
X146003242Y-76137869D01*
X146003242Y-76137872D01*
X145970000Y-76347753D01*
X145970000Y-76560246D01*
X146003242Y-76770127D01*
X146003242Y-76770130D01*
X146068904Y-76972217D01*
X146165375Y-77161550D01*
X146204728Y-77215716D01*
X146837037Y-76583408D01*
X146854075Y-76646993D01*
X146919901Y-76761007D01*
X147012993Y-76854099D01*
X147127007Y-76919925D01*
X147190590Y-76936962D01*
X146558282Y-77569269D01*
X146558282Y-77569270D01*
X146612452Y-77608626D01*
X146612451Y-77608626D01*
X146621495Y-77613234D01*
X146672292Y-77661208D01*
X146689087Y-77729029D01*
X146666550Y-77795164D01*
X146621499Y-77834202D01*
X146612182Y-77838949D01*
X146440213Y-77963890D01*
X146289890Y-78114213D01*
X146164949Y-78286181D01*
X146158525Y-78298792D01*
X146110552Y-78349589D01*
X146048039Y-78366500D01*
X145601884Y-78366500D01*
X145534845Y-78346815D01*
X145489090Y-78294011D01*
X145478526Y-78255101D01*
X145471999Y-78191203D01*
X145416814Y-78024666D01*
X145324712Y-77875344D01*
X145200656Y-77751288D01*
X145107888Y-77694069D01*
X145051336Y-77659187D01*
X145051331Y-77659185D01*
X145030475Y-77652274D01*
X144884797Y-77604001D01*
X144884795Y-77604000D01*
X144782010Y-77593500D01*
X142681998Y-77593500D01*
X142681981Y-77593501D01*
X142579203Y-77604000D01*
X142579200Y-77604001D01*
X142412668Y-77659185D01*
X142412663Y-77659187D01*
X142263342Y-77751289D01*
X142139289Y-77875342D01*
X142047187Y-78024663D01*
X142047186Y-78024666D01*
X141992001Y-78191203D01*
X141992001Y-78191204D01*
X141992000Y-78191204D01*
X141981500Y-78293983D01*
X141981500Y-78293991D01*
X141981500Y-78953390D01*
X141981501Y-79509260D01*
X141961816Y-79576299D01*
X141909013Y-79622054D01*
X141857501Y-79633260D01*
X141606500Y-79633260D01*
X141539461Y-79613575D01*
X141493706Y-79560771D01*
X141482500Y-79509260D01*
X141482499Y-78293998D01*
X141482498Y-78293981D01*
X141471999Y-78191203D01*
X141471998Y-78191200D01*
X141446485Y-78114208D01*
X141416814Y-78024666D01*
X141324712Y-77875344D01*
X141200656Y-77751288D01*
X141107888Y-77694069D01*
X141051336Y-77659187D01*
X141051331Y-77659185D01*
X141030475Y-77652274D01*
X140884797Y-77604001D01*
X140884795Y-77604000D01*
X140782016Y-77593500D01*
X140782009Y-77593500D01*
X139270281Y-77593500D01*
X139203242Y-77573815D01*
X139182600Y-77557181D01*
X138365300Y-76739880D01*
X138331815Y-76678557D01*
X138336799Y-76608865D01*
X138378671Y-76552932D01*
X138444135Y-76528515D01*
X138491980Y-76534492D01*
X138611203Y-76573999D01*
X138713991Y-76584500D01*
X140814008Y-76584499D01*
X140916797Y-76573999D01*
X141083334Y-76518814D01*
X141232656Y-76426712D01*
X141356712Y-76302656D01*
X141448814Y-76153334D01*
X141503999Y-75986797D01*
X141514500Y-75884009D01*
X141514500Y-75883986D01*
X142014001Y-75883986D01*
X142024494Y-75986697D01*
X142079641Y-76153119D01*
X142079643Y-76153124D01*
X142171684Y-76302345D01*
X142295654Y-76426315D01*
X142444875Y-76518356D01*
X142444880Y-76518358D01*
X142611302Y-76573505D01*
X142611309Y-76573506D01*
X142714019Y-76583999D01*
X143513999Y-76583999D01*
X144014000Y-76583999D01*
X144813972Y-76583999D01*
X144813986Y-76583998D01*
X144916697Y-76573505D01*
X145083119Y-76518358D01*
X145083124Y-76518356D01*
X145232345Y-76426315D01*
X145356317Y-76302343D01*
X145371465Y-76277785D01*
X145371465Y-76277784D01*
X145448356Y-76153124D01*
X145448358Y-76153119D01*
X145503505Y-75986697D01*
X145503506Y-75986690D01*
X145513999Y-75883986D01*
X145514000Y-75883973D01*
X145514000Y-75434000D01*
X144014000Y-75434000D01*
X144014000Y-76583999D01*
X143513999Y-76583999D01*
X143514000Y-76583998D01*
X143514000Y-75434000D01*
X142014001Y-75434000D01*
X142014001Y-75883986D01*
X141514500Y-75883986D01*
X141514499Y-75178966D01*
X141514499Y-74484013D01*
X142014000Y-74484013D01*
X142014000Y-74934000D01*
X143514000Y-74934000D01*
X144014000Y-74934000D01*
X145513999Y-74934000D01*
X145513999Y-74484028D01*
X145513998Y-74484013D01*
X145503505Y-74381302D01*
X145448358Y-74214880D01*
X145448356Y-74214875D01*
X145356315Y-74065654D01*
X145232345Y-73941684D01*
X145083124Y-73849643D01*
X145083119Y-73849641D01*
X144916697Y-73794494D01*
X144916690Y-73794493D01*
X144813986Y-73784000D01*
X144014000Y-73784000D01*
X144014000Y-74934000D01*
X143514000Y-74934000D01*
X143514000Y-73784000D01*
X142714028Y-73784000D01*
X142714012Y-73784001D01*
X142611302Y-73794494D01*
X142444880Y-73849641D01*
X142444875Y-73849643D01*
X142295654Y-73941684D01*
X142171684Y-74065654D01*
X142079643Y-74214875D01*
X142079641Y-74214880D01*
X142024494Y-74381302D01*
X142024493Y-74381309D01*
X142014000Y-74484013D01*
X141514499Y-74484013D01*
X141514499Y-74483998D01*
X141514498Y-74483981D01*
X141503999Y-74381203D01*
X141503998Y-74381200D01*
X141457288Y-74240239D01*
X141448814Y-74214666D01*
X141356712Y-74065344D01*
X141232656Y-73941288D01*
X141083334Y-73849186D01*
X140916797Y-73794001D01*
X140916795Y-73794000D01*
X140814016Y-73783500D01*
X140814009Y-73783500D01*
X140079972Y-73783500D01*
X140012933Y-73763815D01*
X139967178Y-73711011D01*
X139955972Y-73659500D01*
X139955972Y-73009463D01*
X139975657Y-72942424D01*
X140028461Y-72896669D01*
X140097619Y-72886725D01*
X140161175Y-72915750D01*
X140167653Y-72921782D01*
X140172433Y-72926562D01*
X140293287Y-73018209D01*
X140293288Y-73018209D01*
X140293289Y-73018210D01*
X140434387Y-73073852D01*
X140523056Y-73084500D01*
X140523062Y-73084500D01*
X142076938Y-73084500D01*
X142076944Y-73084500D01*
X142165613Y-73073852D01*
X142306711Y-73018210D01*
X142427564Y-72926564D01*
X142519210Y-72805711D01*
X142574852Y-72664613D01*
X142585500Y-72575944D01*
X142585500Y-72182056D01*
X142574852Y-72093387D01*
X142574849Y-72093381D01*
X142572903Y-72085675D01*
X142575097Y-72085120D01*
X142568972Y-72044575D01*
X142570394Y-72025916D01*
X142574852Y-72014613D01*
X142585500Y-71925944D01*
X142585500Y-71827756D01*
X142585859Y-71823047D01*
X142596618Y-71794607D01*
X142605185Y-71765433D01*
X142608860Y-71762248D01*
X142610582Y-71757698D01*
X142635011Y-71739588D01*
X142657989Y-71719678D01*
X142662803Y-71718985D01*
X142666711Y-71716089D01*
X142697045Y-71714062D01*
X142727147Y-71709734D01*
X142735161Y-71711515D01*
X142736425Y-71711431D01*
X142737532Y-71712042D01*
X142742717Y-71713194D01*
X142744873Y-71713622D01*
X142744876Y-71713624D01*
X142824862Y-71729534D01*
X142915177Y-71747500D01*
X142915180Y-71747500D01*
X143088822Y-71747500D01*
X143203394Y-71724709D01*
X143259124Y-71713624D01*
X143419547Y-71647175D01*
X143563923Y-71550706D01*
X143686706Y-71427923D01*
X143706822Y-71397816D01*
X143760433Y-71353011D01*
X143829758Y-71344302D01*
X143892786Y-71374456D01*
G37*
%TD.AperFunction*%
%TA.AperFunction,Conductor*%
G36*
X149874962Y-65290185D02*
G01*
X149920717Y-65342989D01*
X149930661Y-65412147D01*
X149901636Y-65475703D01*
X149883412Y-65492873D01*
X149788641Y-65565594D01*
X149675992Y-65652033D01*
X149472033Y-65855992D01*
X149296423Y-66084850D01*
X149152200Y-66334653D01*
X149152196Y-66334663D01*
X149041813Y-66601151D01*
X148967153Y-66879786D01*
X148929504Y-67165761D01*
X148929503Y-67165778D01*
X148929503Y-67454221D01*
X148929504Y-67454238D01*
X148967153Y-67740213D01*
X149041813Y-68018848D01*
X149152196Y-68285336D01*
X149152200Y-68285346D01*
X149296423Y-68535149D01*
X149296427Y-68535154D01*
X149472027Y-68764000D01*
X149472033Y-68764007D01*
X149675992Y-68967966D01*
X149675996Y-68967969D01*
X149675998Y-68967971D01*
X149856532Y-69106500D01*
X149904850Y-69143576D01*
X150154653Y-69287799D01*
X150154654Y-69287799D01*
X150154657Y-69287801D01*
X150421156Y-69398188D01*
X150699783Y-69472846D01*
X150985772Y-69510497D01*
X150985779Y-69510497D01*
X151274221Y-69510497D01*
X151274228Y-69510497D01*
X151560217Y-69472846D01*
X151838844Y-69398188D01*
X152105343Y-69287801D01*
X152280932Y-69186424D01*
X152355149Y-69143576D01*
X152355149Y-69143575D01*
X152355154Y-69143573D01*
X152584002Y-68967971D01*
X152787971Y-68764002D01*
X152947125Y-68556589D01*
X153003552Y-68515387D01*
X153073298Y-68511232D01*
X153134218Y-68545444D01*
X153166971Y-68607161D01*
X153169500Y-68632076D01*
X153169500Y-93927923D01*
X153149815Y-93994962D01*
X153097011Y-94040717D01*
X153027853Y-94050661D01*
X152964297Y-94021636D01*
X152947126Y-94003412D01*
X152787971Y-93795998D01*
X152787969Y-93795996D01*
X152787966Y-93795992D01*
X152584007Y-93592033D01*
X152355149Y-93416423D01*
X152105346Y-93272200D01*
X152105336Y-93272196D01*
X151838848Y-93161813D01*
X151560213Y-93087153D01*
X151274238Y-93049504D01*
X151274233Y-93049503D01*
X151274228Y-93049503D01*
X150985772Y-93049503D01*
X150985766Y-93049503D01*
X150985761Y-93049504D01*
X150699786Y-93087153D01*
X150421151Y-93161813D01*
X150154663Y-93272196D01*
X150154653Y-93272200D01*
X149904850Y-93416423D01*
X149675992Y-93592033D01*
X149472033Y-93795992D01*
X149296423Y-94024850D01*
X149152200Y-94274653D01*
X149152196Y-94274663D01*
X149041813Y-94541151D01*
X148967153Y-94819786D01*
X148929504Y-95105761D01*
X148929503Y-95105778D01*
X148929503Y-95394221D01*
X148929504Y-95394238D01*
X148967153Y-95680213D01*
X149041813Y-95958848D01*
X149152196Y-96225336D01*
X149152200Y-96225346D01*
X149296423Y-96475149D01*
X149296427Y-96475154D01*
X149472027Y-96704000D01*
X149472033Y-96704007D01*
X149675992Y-96907966D01*
X149675996Y-96907969D01*
X149675998Y-96907971D01*
X149883410Y-97067125D01*
X149924612Y-97123552D01*
X149928767Y-97193298D01*
X149894555Y-97254219D01*
X149832837Y-97286971D01*
X149807923Y-97289500D01*
X127052077Y-97289500D01*
X126985038Y-97269815D01*
X126939283Y-97217011D01*
X126929339Y-97147853D01*
X126958364Y-97084297D01*
X126976587Y-97067126D01*
X127184002Y-96907971D01*
X127387971Y-96704002D01*
X127563573Y-96475154D01*
X127574986Y-96455387D01*
X127707799Y-96225346D01*
X127707801Y-96225343D01*
X127818188Y-95958844D01*
X127892846Y-95680217D01*
X127930497Y-95394228D01*
X127930497Y-95105772D01*
X127892846Y-94819783D01*
X127818188Y-94541156D01*
X127707801Y-94274657D01*
X127680437Y-94227261D01*
X127563576Y-94024850D01*
X127555676Y-94014555D01*
X127387971Y-93795998D01*
X127387969Y-93795996D01*
X127387966Y-93795992D01*
X127184007Y-93592033D01*
X126955149Y-93416423D01*
X126705346Y-93272200D01*
X126705336Y-93272196D01*
X126438848Y-93161813D01*
X126160213Y-93087153D01*
X125874238Y-93049504D01*
X125874233Y-93049503D01*
X125874228Y-93049503D01*
X125585772Y-93049503D01*
X125585766Y-93049503D01*
X125585761Y-93049504D01*
X125299786Y-93087153D01*
X125021151Y-93161813D01*
X124754663Y-93272196D01*
X124754653Y-93272200D01*
X124504850Y-93416423D01*
X124275992Y-93592033D01*
X124072033Y-93795992D01*
X123985594Y-93908641D01*
X123912874Y-94003410D01*
X123856448Y-94044612D01*
X123786702Y-94048767D01*
X123725781Y-94014555D01*
X123693029Y-93952837D01*
X123690500Y-93927923D01*
X123690500Y-90339983D01*
X129249500Y-90339983D01*
X129249500Y-92540001D01*
X129249501Y-92540018D01*
X129260000Y-92642796D01*
X129260001Y-92642799D01*
X129308885Y-92790319D01*
X129315186Y-92809334D01*
X129407288Y-92958656D01*
X129531344Y-93082712D01*
X129680666Y-93174814D01*
X129847203Y-93229999D01*
X129949991Y-93240500D01*
X132150008Y-93240499D01*
X132252797Y-93229999D01*
X132419334Y-93174814D01*
X132568656Y-93082712D01*
X132692712Y-92958656D01*
X132784814Y-92809334D01*
X132839999Y-92642797D01*
X132850500Y-92540009D01*
X132850499Y-91322014D01*
X134250000Y-91322014D01*
X134250000Y-91557985D01*
X134280799Y-91791914D01*
X134341870Y-92019837D01*
X134432160Y-92237819D01*
X134432165Y-92237828D01*
X134550144Y-92442171D01*
X134550145Y-92442172D01*
X134612721Y-92523723D01*
X135448958Y-91687487D01*
X135473978Y-91747890D01*
X135545112Y-91854351D01*
X135635649Y-91944888D01*
X135742110Y-92016022D01*
X135802511Y-92041041D01*
X134966275Y-92877277D01*
X135047827Y-92939854D01*
X135047828Y-92939855D01*
X135252171Y-93057834D01*
X135252180Y-93057839D01*
X135470163Y-93148129D01*
X135470161Y-93148129D01*
X135698085Y-93209200D01*
X135932014Y-93239999D01*
X135932029Y-93240000D01*
X136167971Y-93240000D01*
X136167985Y-93239999D01*
X136401914Y-93209200D01*
X136629837Y-93148129D01*
X136847819Y-93057839D01*
X136847828Y-93057834D01*
X137052181Y-92939850D01*
X137133723Y-92877279D01*
X137133723Y-92877276D01*
X136297487Y-92041041D01*
X136357890Y-92016022D01*
X136464351Y-91944888D01*
X136554888Y-91854351D01*
X136626022Y-91747890D01*
X136651041Y-91687488D01*
X137487276Y-92523723D01*
X137487279Y-92523723D01*
X137549850Y-92442181D01*
X137667834Y-92237828D01*
X137667839Y-92237819D01*
X137758129Y-92019837D01*
X137819200Y-91791914D01*
X137849999Y-91557985D01*
X137850000Y-91557971D01*
X137850000Y-91322028D01*
X137849999Y-91322014D01*
X137819200Y-91088085D01*
X137758129Y-90860162D01*
X137667839Y-90642180D01*
X137667834Y-90642171D01*
X137549855Y-90437828D01*
X137549854Y-90437827D01*
X137487277Y-90356275D01*
X136651041Y-91192511D01*
X136626022Y-91132110D01*
X136554888Y-91025649D01*
X136464351Y-90935112D01*
X136357890Y-90863978D01*
X136297488Y-90838958D01*
X137133723Y-90002721D01*
X137052172Y-89940145D01*
X137052171Y-89940144D01*
X136847828Y-89822165D01*
X136847819Y-89822160D01*
X136629836Y-89731870D01*
X136629838Y-89731870D01*
X136401914Y-89670799D01*
X136167985Y-89640000D01*
X135932014Y-89640000D01*
X135698085Y-89670799D01*
X135470162Y-89731870D01*
X135252180Y-89822160D01*
X135252171Y-89822165D01*
X135047828Y-89940144D01*
X135047818Y-89940150D01*
X134966275Y-90002720D01*
X134966275Y-90002721D01*
X135802512Y-90838958D01*
X135742110Y-90863978D01*
X135635649Y-90935112D01*
X135545112Y-91025649D01*
X135473978Y-91132110D01*
X135448958Y-91192511D01*
X134612721Y-90356275D01*
X134612720Y-90356275D01*
X134550150Y-90437818D01*
X134550144Y-90437828D01*
X134432165Y-90642171D01*
X134432160Y-90642180D01*
X134341870Y-90860162D01*
X134280799Y-91088085D01*
X134250000Y-91322014D01*
X132850499Y-91322014D01*
X132850499Y-90339992D01*
X132839999Y-90237203D01*
X132784814Y-90070666D01*
X132692712Y-89921344D01*
X132568656Y-89797288D01*
X132461824Y-89731394D01*
X132419336Y-89705187D01*
X132419331Y-89705185D01*
X132391187Y-89695859D01*
X132252797Y-89650001D01*
X132252795Y-89650000D01*
X132150010Y-89639500D01*
X129949998Y-89639500D01*
X129949981Y-89639501D01*
X129847203Y-89650000D01*
X129847200Y-89650001D01*
X129680668Y-89705185D01*
X129680663Y-89705187D01*
X129531342Y-89797289D01*
X129407289Y-89921342D01*
X129315187Y-90070663D01*
X129315185Y-90070668D01*
X129308886Y-90089678D01*
X129260001Y-90237203D01*
X129260001Y-90237204D01*
X129260000Y-90237204D01*
X129249500Y-90339983D01*
X123690500Y-90339983D01*
X123690500Y-68632076D01*
X123710185Y-68565037D01*
X123762989Y-68519282D01*
X123832147Y-68509338D01*
X123895703Y-68538363D01*
X123912873Y-68556587D01*
X123951448Y-68606858D01*
X124072027Y-68764000D01*
X124072033Y-68764007D01*
X124275992Y-68967966D01*
X124275996Y-68967969D01*
X124275998Y-68967971D01*
X124456532Y-69106500D01*
X124504850Y-69143576D01*
X124754653Y-69287799D01*
X124754654Y-69287799D01*
X124754657Y-69287801D01*
X125021156Y-69398188D01*
X125299783Y-69472846D01*
X125585772Y-69510497D01*
X125585779Y-69510497D01*
X125874221Y-69510497D01*
X125874228Y-69510497D01*
X126160217Y-69472846D01*
X126438844Y-69398188D01*
X126705343Y-69287801D01*
X126880932Y-69186424D01*
X126955149Y-69143576D01*
X126955149Y-69143575D01*
X126955154Y-69143573D01*
X127184002Y-68967971D01*
X127387971Y-68764002D01*
X127563573Y-68535154D01*
X127574986Y-68515387D01*
X127707799Y-68285346D01*
X127707801Y-68285343D01*
X127818188Y-68018844D01*
X127837670Y-67946135D01*
X128189500Y-67946135D01*
X128189500Y-69741870D01*
X128189501Y-69741876D01*
X128195908Y-69801483D01*
X128246202Y-69936328D01*
X128246206Y-69936335D01*
X128332452Y-70051544D01*
X128332455Y-70051547D01*
X128447664Y-70137793D01*
X128447671Y-70137797D01*
X128579082Y-70186810D01*
X128635016Y-70228681D01*
X128659433Y-70294145D01*
X128644582Y-70362418D01*
X128623431Y-70390673D01*
X128509889Y-70504215D01*
X128384951Y-70676179D01*
X128288444Y-70865585D01*
X128222753Y-71067760D01*
X128222753Y-71067761D01*
X128189500Y-71277713D01*
X128189500Y-71490287D01*
X128199534Y-71553644D01*
X128221169Y-71690239D01*
X128222754Y-71700243D01*
X128285194Y-71892414D01*
X128288444Y-71902414D01*
X128384951Y-72091820D01*
X128509890Y-72263786D01*
X128660213Y-72414109D01*
X128832182Y-72539050D01*
X128840946Y-72543516D01*
X128891742Y-72591491D01*
X128908536Y-72659312D01*
X128885998Y-72725447D01*
X128840946Y-72764484D01*
X128832182Y-72768949D01*
X128660213Y-72893890D01*
X128509890Y-73044213D01*
X128384951Y-73216179D01*
X128288444Y-73405585D01*
X128222753Y-73607760D01*
X128191084Y-73807713D01*
X128189500Y-73817713D01*
X128189500Y-74030287D01*
X128195052Y-74065342D01*
X128221169Y-74230239D01*
X128222754Y-74240243D01*
X128285194Y-74432414D01*
X128288444Y-74442414D01*
X128384951Y-74631820D01*
X128509890Y-74803786D01*
X128660213Y-74954109D01*
X128832182Y-75079050D01*
X128840946Y-75083516D01*
X128891742Y-75131491D01*
X128908536Y-75199312D01*
X128885998Y-75265447D01*
X128840946Y-75304484D01*
X128832182Y-75308949D01*
X128660213Y-75433890D01*
X128509890Y-75584213D01*
X128384951Y-75756179D01*
X128288444Y-75945585D01*
X128222753Y-76147760D01*
X128189500Y-76357713D01*
X128189500Y-76570286D01*
X128221151Y-76770127D01*
X128222754Y-76780243D01*
X128285130Y-76972217D01*
X128288444Y-76982414D01*
X128384951Y-77171820D01*
X128509890Y-77343786D01*
X128660213Y-77494109D01*
X128832179Y-77619048D01*
X128832181Y-77619049D01*
X128832184Y-77619051D01*
X129021588Y-77715557D01*
X129223757Y-77781246D01*
X129433713Y-77814500D01*
X129433714Y-77814500D01*
X129646286Y-77814500D01*
X129646287Y-77814500D01*
X129856243Y-77781246D01*
X130058412Y-77715557D01*
X130179666Y-77653774D01*
X130235961Y-77640260D01*
X132125500Y-77640260D01*
X132192539Y-77659945D01*
X132238294Y-77712749D01*
X132249500Y-77764260D01*
X132249500Y-78732001D01*
X132249501Y-78732019D01*
X132260000Y-78834796D01*
X132260001Y-78834799D01*
X132299299Y-78953390D01*
X132315186Y-79001334D01*
X132376220Y-79100287D01*
X132407289Y-79150657D01*
X132429451Y-79172819D01*
X132462936Y-79234142D01*
X132457952Y-79303834D01*
X132435537Y-79338709D01*
X132436766Y-79339681D01*
X132432290Y-79345341D01*
X132340187Y-79494663D01*
X132340185Y-79494668D01*
X132334305Y-79512414D01*
X132285001Y-79661203D01*
X132285001Y-79661204D01*
X132285000Y-79661204D01*
X132274500Y-79763983D01*
X132274500Y-80764001D01*
X132274501Y-80764019D01*
X132285000Y-80866796D01*
X132285001Y-80866799D01*
X132340185Y-81033331D01*
X132340187Y-81033336D01*
X132351245Y-81051264D01*
X132432288Y-81182656D01*
X132556344Y-81306712D01*
X132705666Y-81398814D01*
X132872203Y-81453999D01*
X132974991Y-81464500D01*
X133725008Y-81464499D01*
X133725016Y-81464498D01*
X133725019Y-81464498D01*
X133781302Y-81458748D01*
X133827797Y-81453999D01*
X133994334Y-81398814D01*
X134143656Y-81306712D01*
X134267712Y-81182656D01*
X134269461Y-81179819D01*
X134271169Y-81178283D01*
X134272193Y-81176989D01*
X134272414Y-81177163D01*
X134321406Y-81133096D01*
X134390368Y-81121872D01*
X134454451Y-81149713D01*
X134480537Y-81179817D01*
X134482288Y-81182656D01*
X134606344Y-81306712D01*
X134755666Y-81398814D01*
X134922203Y-81453999D01*
X135024991Y-81464500D01*
X135775008Y-81464499D01*
X135775016Y-81464498D01*
X135775019Y-81464498D01*
X135831302Y-81458748D01*
X135877797Y-81453999D01*
X136044334Y-81398814D01*
X136193656Y-81306712D01*
X136317712Y-81182656D01*
X136317712Y-81182655D01*
X136320819Y-81179549D01*
X136382142Y-81146064D01*
X136451834Y-81151048D01*
X136507767Y-81192920D01*
X136532184Y-81258384D01*
X136532500Y-81267230D01*
X136532500Y-81860307D01*
X136556612Y-81981528D01*
X136556613Y-81981532D01*
X136556614Y-81981535D01*
X136578568Y-82034535D01*
X136603917Y-82095733D01*
X136631609Y-82137177D01*
X136635391Y-82142837D01*
X136672590Y-82198510D01*
X136672591Y-82198511D01*
X137926181Y-83452100D01*
X137959666Y-83513423D01*
X137962500Y-83539781D01*
X137962500Y-83925669D01*
X137962501Y-83925687D01*
X137972825Y-84026752D01*
X138027092Y-84190515D01*
X138027093Y-84190518D01*
X138035419Y-84204016D01*
X138117660Y-84337350D01*
X138239650Y-84459340D01*
X138386484Y-84549908D01*
X138550247Y-84604174D01*
X138651323Y-84614500D01*
X139224676Y-84614499D01*
X139224684Y-84614498D01*
X139224687Y-84614498D01*
X139280030Y-84608844D01*
X139325753Y-84604174D01*
X139489516Y-84549908D01*
X139636350Y-84459340D01*
X139661639Y-84434050D01*
X139722958Y-84400567D01*
X139792650Y-84405551D01*
X139848584Y-84447421D01*
X139854854Y-84456632D01*
X139903288Y-84535156D01*
X140027344Y-84659212D01*
X140176666Y-84751314D01*
X140233505Y-84770148D01*
X140290948Y-84809918D01*
X140317772Y-84874434D01*
X140318500Y-84887853D01*
X140318500Y-89711789D01*
X140298815Y-89778828D01*
X140254647Y-89818267D01*
X140255466Y-89819686D01*
X140047545Y-89939730D01*
X139860302Y-90083406D01*
X139860295Y-90083412D01*
X139693412Y-90250295D01*
X139693406Y-90250302D01*
X139549730Y-90437545D01*
X139549727Y-90437549D01*
X139549727Y-90437550D01*
X139542014Y-90450909D01*
X139431719Y-90641943D01*
X139431714Y-90641954D01*
X139341394Y-90860006D01*
X139280306Y-91087989D01*
X139249501Y-91321979D01*
X139249500Y-91321995D01*
X139249500Y-91558004D01*
X139249501Y-91558020D01*
X139280306Y-91792010D01*
X139341394Y-92019993D01*
X139431714Y-92238045D01*
X139431719Y-92238056D01*
X139502677Y-92360957D01*
X139549727Y-92442450D01*
X139549729Y-92442453D01*
X139549730Y-92442454D01*
X139693406Y-92629697D01*
X139693412Y-92629704D01*
X139860295Y-92796587D01*
X139860302Y-92796593D01*
X139970306Y-92881001D01*
X140047550Y-92940273D01*
X140178918Y-93016118D01*
X140251943Y-93058280D01*
X140251948Y-93058282D01*
X140251951Y-93058284D01*
X140470007Y-93148606D01*
X140697986Y-93209693D01*
X140931989Y-93240500D01*
X140931996Y-93240500D01*
X141168004Y-93240500D01*
X141168011Y-93240500D01*
X141402014Y-93209693D01*
X141629993Y-93148606D01*
X141848049Y-93058284D01*
X142052450Y-92940273D01*
X142239699Y-92796592D01*
X142406592Y-92629699D01*
X142550273Y-92442450D01*
X142668284Y-92238049D01*
X142758606Y-92019993D01*
X142819693Y-91792014D01*
X142850500Y-91558011D01*
X142850500Y-91321989D01*
X142819693Y-91087986D01*
X142758606Y-90860007D01*
X142668284Y-90641951D01*
X142668282Y-90641948D01*
X142668280Y-90641943D01*
X142626118Y-90568918D01*
X142550273Y-90437550D01*
X142406592Y-90250301D01*
X142406587Y-90250295D01*
X142239704Y-90083412D01*
X142239697Y-90083406D01*
X142052454Y-89939730D01*
X142052453Y-89939729D01*
X142052450Y-89939727D01*
X141970957Y-89892677D01*
X141848056Y-89821719D01*
X141848044Y-89821714D01*
X141650047Y-89739700D01*
X141595644Y-89695859D01*
X141573579Y-89629565D01*
X141573500Y-89625139D01*
X141573500Y-84887853D01*
X141593185Y-84820814D01*
X141645989Y-84775059D01*
X141658482Y-84770152D01*
X141715334Y-84751314D01*
X141864656Y-84659212D01*
X141988712Y-84535156D01*
X142080814Y-84385834D01*
X142135999Y-84219297D01*
X142146500Y-84116509D01*
X142146499Y-83501239D01*
X142166183Y-83434201D01*
X142218987Y-83388446D01*
X142270499Y-83377240D01*
X142918500Y-83377240D01*
X142985539Y-83396925D01*
X143031294Y-83449729D01*
X143042500Y-83501240D01*
X143042500Y-83862169D01*
X143042501Y-83862187D01*
X143052825Y-83963252D01*
X143073868Y-84026753D01*
X143107092Y-84127016D01*
X143197660Y-84273850D01*
X143319650Y-84395840D01*
X143466484Y-84486408D01*
X143630247Y-84540674D01*
X143731323Y-84551000D01*
X144304676Y-84550999D01*
X144304684Y-84550998D01*
X144304687Y-84550998D01*
X144360030Y-84545344D01*
X144405753Y-84540674D01*
X144569516Y-84486408D01*
X144716350Y-84395840D01*
X144716351Y-84395838D01*
X144722497Y-84392048D01*
X144723472Y-84393629D01*
X144779425Y-84371050D01*
X144848068Y-84384082D01*
X144898769Y-84432157D01*
X144909259Y-84455448D01*
X144915184Y-84473330D01*
X144915185Y-84473331D01*
X144915186Y-84473334D01*
X145007288Y-84622656D01*
X145131344Y-84746712D01*
X145280666Y-84838814D01*
X145337505Y-84857648D01*
X145394948Y-84897418D01*
X145421772Y-84961934D01*
X145422500Y-84975353D01*
X145422500Y-89668217D01*
X145402815Y-89735256D01*
X145350011Y-89781011D01*
X145345954Y-89782778D01*
X145251950Y-89821716D01*
X145251943Y-89821719D01*
X145047545Y-89939730D01*
X144860302Y-90083406D01*
X144860295Y-90083412D01*
X144693412Y-90250295D01*
X144693406Y-90250302D01*
X144549730Y-90437545D01*
X144549727Y-90437549D01*
X144549727Y-90437550D01*
X144542014Y-90450909D01*
X144431719Y-90641943D01*
X144431714Y-90641954D01*
X144341394Y-90860006D01*
X144280306Y-91087989D01*
X144249501Y-91321979D01*
X144249500Y-91321995D01*
X144249500Y-91558004D01*
X144249501Y-91558020D01*
X144280306Y-91792010D01*
X144341394Y-92019993D01*
X144431714Y-92238045D01*
X144431719Y-92238056D01*
X144502677Y-92360957D01*
X144549727Y-92442450D01*
X144549729Y-92442453D01*
X144549730Y-92442454D01*
X144693406Y-92629697D01*
X144693412Y-92629704D01*
X144860295Y-92796587D01*
X144860302Y-92796593D01*
X144970306Y-92881001D01*
X145047550Y-92940273D01*
X145178918Y-93016118D01*
X145251943Y-93058280D01*
X145251948Y-93058282D01*
X145251951Y-93058284D01*
X145470007Y-93148606D01*
X145697986Y-93209693D01*
X145931989Y-93240500D01*
X145931996Y-93240500D01*
X146168004Y-93240500D01*
X146168011Y-93240500D01*
X146402014Y-93209693D01*
X146629993Y-93148606D01*
X146848049Y-93058284D01*
X147052450Y-92940273D01*
X147239699Y-92796592D01*
X147406592Y-92629699D01*
X147550273Y-92442450D01*
X147668284Y-92238049D01*
X147758606Y-92019993D01*
X147819693Y-91792014D01*
X147850500Y-91558011D01*
X147850500Y-91321989D01*
X147819693Y-91087986D01*
X147758606Y-90860007D01*
X147668284Y-90641951D01*
X147668282Y-90641948D01*
X147668280Y-90641943D01*
X147626118Y-90568918D01*
X147550273Y-90437550D01*
X147406592Y-90250301D01*
X147406587Y-90250295D01*
X147239704Y-90083412D01*
X147239697Y-90083406D01*
X147052454Y-89939730D01*
X147052453Y-89939729D01*
X147052450Y-89939727D01*
X146970957Y-89892677D01*
X146848056Y-89821719D01*
X146848049Y-89821716D01*
X146754046Y-89782778D01*
X146699643Y-89738936D01*
X146677579Y-89672642D01*
X146677500Y-89668217D01*
X146677500Y-84975353D01*
X146697185Y-84908314D01*
X146749989Y-84862559D01*
X146762482Y-84857652D01*
X146819334Y-84838814D01*
X146968656Y-84746712D01*
X147092712Y-84622656D01*
X147184814Y-84473334D01*
X147239999Y-84306797D01*
X147250500Y-84204009D01*
X147250499Y-83403992D01*
X147239999Y-83301203D01*
X147184814Y-83134666D01*
X147092712Y-82985344D01*
X146999049Y-82891681D01*
X146965564Y-82830358D01*
X146970548Y-82760666D01*
X146999049Y-82716319D01*
X147092712Y-82622656D01*
X147184814Y-82473334D01*
X147239999Y-82306797D01*
X147250500Y-82204009D01*
X147250499Y-81403992D01*
X147239999Y-81301203D01*
X147184814Y-81134666D01*
X147092712Y-80985344D01*
X146968656Y-80861288D01*
X146875888Y-80804069D01*
X146819336Y-80769187D01*
X146819331Y-80769185D01*
X146792593Y-80760325D01*
X146652797Y-80714001D01*
X146652795Y-80714000D01*
X146550010Y-80703500D01*
X145549998Y-80703500D01*
X145549980Y-80703501D01*
X145447203Y-80714000D01*
X145447200Y-80714001D01*
X145280668Y-80769185D01*
X145280663Y-80769187D01*
X145131342Y-80861289D01*
X145007288Y-80985343D01*
X145002807Y-80991011D01*
X145001021Y-80989599D01*
X144957228Y-81028962D01*
X144888262Y-81040161D01*
X144824189Y-81012297D01*
X144815994Y-81004804D01*
X144716351Y-80905161D01*
X144716350Y-80905160D01*
X144625129Y-80848895D01*
X144569518Y-80814593D01*
X144569513Y-80814591D01*
X144568069Y-80814112D01*
X144405753Y-80760326D01*
X144405751Y-80760325D01*
X144304678Y-80750000D01*
X143731330Y-80750000D01*
X143731312Y-80750001D01*
X143630247Y-80760325D01*
X143466484Y-80814592D01*
X143466481Y-80814593D01*
X143319648Y-80905161D01*
X143197661Y-81027148D01*
X143107093Y-81173981D01*
X143107091Y-81173986D01*
X143100817Y-81192920D01*
X143052826Y-81337747D01*
X143052826Y-81337748D01*
X143052825Y-81337748D01*
X143042500Y-81438815D01*
X143042500Y-81438823D01*
X143042500Y-81736697D01*
X143042501Y-81998240D01*
X143022817Y-82065279D01*
X142970013Y-82111034D01*
X142918501Y-82122240D01*
X142270500Y-82122240D01*
X142203461Y-82102555D01*
X142157706Y-82049751D01*
X142146500Y-81998240D01*
X142146499Y-81316498D01*
X142146498Y-81316480D01*
X142135999Y-81213703D01*
X142135998Y-81213700D01*
X142082172Y-81051264D01*
X142079770Y-80981436D01*
X142115502Y-80921394D01*
X142178022Y-80890201D01*
X142199878Y-80888260D01*
X142527044Y-80888260D01*
X142527045Y-80888259D01*
X142648275Y-80864146D01*
X142745614Y-80823826D01*
X142762473Y-80816843D01*
X142865248Y-80748171D01*
X142952651Y-80660768D01*
X143182600Y-80430817D01*
X143243923Y-80397333D01*
X143270281Y-80394499D01*
X144782002Y-80394499D01*
X144782008Y-80394499D01*
X144884797Y-80383999D01*
X145051334Y-80328814D01*
X145200656Y-80236712D01*
X145324712Y-80112656D01*
X145416814Y-79963334D01*
X145471999Y-79796797D01*
X145478527Y-79732897D01*
X145504923Y-79668206D01*
X145562104Y-79628054D01*
X145601885Y-79621500D01*
X146048039Y-79621500D01*
X146115078Y-79641185D01*
X146158525Y-79689208D01*
X146164949Y-79701818D01*
X146289890Y-79873786D01*
X146440213Y-80024109D01*
X146612179Y-80149048D01*
X146612181Y-80149049D01*
X146612184Y-80149051D01*
X146801588Y-80245557D01*
X147003757Y-80311246D01*
X147213713Y-80344500D01*
X147213714Y-80344500D01*
X147426286Y-80344500D01*
X147426287Y-80344500D01*
X147636243Y-80311246D01*
X147838412Y-80245557D01*
X148027816Y-80149051D01*
X148049789Y-80133086D01*
X148199786Y-80024109D01*
X148199788Y-80024106D01*
X148199792Y-80024104D01*
X148350104Y-79873792D01*
X148350106Y-79873788D01*
X148350109Y-79873786D01*
X148475048Y-79701820D01*
X148475047Y-79701820D01*
X148475051Y-79701816D01*
X148571557Y-79512412D01*
X148637246Y-79310243D01*
X148670500Y-79100287D01*
X148670500Y-78887713D01*
X148637246Y-78677757D01*
X148571557Y-78475588D01*
X148475051Y-78286184D01*
X148475049Y-78286181D01*
X148475048Y-78286179D01*
X148350109Y-78114213D01*
X148199786Y-77963890D01*
X148027817Y-77838949D01*
X148018504Y-77834204D01*
X147967707Y-77786230D01*
X147950912Y-77718409D01*
X147973449Y-77652274D01*
X148018507Y-77613232D01*
X148027555Y-77608622D01*
X148081716Y-77569270D01*
X148081717Y-77569270D01*
X147449408Y-76936962D01*
X147512993Y-76919925D01*
X147627007Y-76854099D01*
X147720099Y-76761007D01*
X147785925Y-76646993D01*
X147802962Y-76583409D01*
X148435270Y-77215717D01*
X148435270Y-77215716D01*
X148474622Y-77161554D01*
X148571095Y-76972217D01*
X148636757Y-76770130D01*
X148636757Y-76770127D01*
X148670000Y-76560246D01*
X148670000Y-76347753D01*
X148636757Y-76137872D01*
X148636757Y-76137869D01*
X148571095Y-75935782D01*
X148474624Y-75746449D01*
X148435270Y-75692282D01*
X148435269Y-75692282D01*
X147802962Y-76324590D01*
X147785925Y-76261007D01*
X147720099Y-76146993D01*
X147627007Y-76053901D01*
X147512993Y-75988075D01*
X147449409Y-75971037D01*
X148081716Y-75338728D01*
X148027547Y-75299373D01*
X148027547Y-75299372D01*
X148018500Y-75294763D01*
X147967706Y-75246788D01*
X147950912Y-75178966D01*
X147973451Y-75112832D01*
X148018508Y-75073793D01*
X148027816Y-75069051D01*
X148107007Y-75011515D01*
X148199786Y-74944109D01*
X148199788Y-74944106D01*
X148199792Y-74944104D01*
X148350104Y-74793792D01*
X148350106Y-74793788D01*
X148350109Y-74793786D01*
X148475048Y-74621820D01*
X148475047Y-74621820D01*
X148475051Y-74621816D01*
X148571557Y-74432412D01*
X148637246Y-74230243D01*
X148670500Y-74020287D01*
X148670500Y-73807713D01*
X148637246Y-73597757D01*
X148571557Y-73395588D01*
X148475051Y-73206184D01*
X148475049Y-73206181D01*
X148475048Y-73206179D01*
X148350109Y-73034213D01*
X148199786Y-72883890D01*
X148027820Y-72758951D01*
X148021245Y-72755601D01*
X148019054Y-72754485D01*
X147968259Y-72706512D01*
X147951463Y-72638692D01*
X147973999Y-72572556D01*
X148019054Y-72533515D01*
X148027816Y-72529051D01*
X148112481Y-72467539D01*
X148199786Y-72404109D01*
X148199788Y-72404106D01*
X148199792Y-72404104D01*
X148350104Y-72253792D01*
X148350106Y-72253788D01*
X148350109Y-72253786D01*
X148472247Y-72085675D01*
X148475051Y-72081816D01*
X148571557Y-71892412D01*
X148637246Y-71690243D01*
X148670500Y-71480287D01*
X148670500Y-71267713D01*
X148637246Y-71057757D01*
X148571557Y-70855588D01*
X148475051Y-70666184D01*
X148475049Y-70666181D01*
X148475048Y-70666179D01*
X148350109Y-70494213D01*
X148236569Y-70380673D01*
X148203084Y-70319350D01*
X148208068Y-70249658D01*
X148249940Y-70193725D01*
X148280915Y-70176810D01*
X148412331Y-70127796D01*
X148527546Y-70041546D01*
X148613796Y-69926331D01*
X148664091Y-69791483D01*
X148670500Y-69731873D01*
X148670499Y-67936128D01*
X148664091Y-67876517D01*
X148624000Y-67769028D01*
X148613797Y-67741671D01*
X148613793Y-67741664D01*
X148527547Y-67626455D01*
X148527544Y-67626452D01*
X148412335Y-67540206D01*
X148412328Y-67540202D01*
X148277482Y-67489908D01*
X148277483Y-67489908D01*
X148217883Y-67483501D01*
X148217881Y-67483500D01*
X148217873Y-67483500D01*
X148217865Y-67483500D01*
X146908281Y-67483500D01*
X146841242Y-67463815D01*
X146820604Y-67447185D01*
X146715008Y-67341589D01*
X146698545Y-67330589D01*
X146698544Y-67330588D01*
X146612239Y-67272920D01*
X146612226Y-67272913D01*
X146578785Y-67259062D01*
X146498035Y-67225614D01*
X146498027Y-67225612D01*
X146376807Y-67201500D01*
X146376803Y-67201500D01*
X142359972Y-67201500D01*
X142314482Y-67192855D01*
X142306712Y-67189790D01*
X142306711Y-67189790D01*
X142209468Y-67151442D01*
X142165611Y-67134147D01*
X142120097Y-67128682D01*
X142076944Y-67123500D01*
X140523056Y-67123500D01*
X140483140Y-67128293D01*
X140434388Y-67134147D01*
X140293287Y-67189790D01*
X140172435Y-67281435D01*
X140080790Y-67402287D01*
X140025147Y-67543388D01*
X140019548Y-67590017D01*
X140014500Y-67632056D01*
X140014500Y-68025944D01*
X140021276Y-68082369D01*
X140025148Y-68114617D01*
X140027095Y-68122317D01*
X140024068Y-68123082D01*
X140029008Y-68178170D01*
X140026822Y-68185614D01*
X140027095Y-68185683D01*
X140025148Y-68193382D01*
X140021699Y-68222105D01*
X140014500Y-68282056D01*
X140014500Y-68675944D01*
X140021276Y-68732369D01*
X140025148Y-68764617D01*
X140027095Y-68772317D01*
X140024068Y-68773082D01*
X140029008Y-68828170D01*
X140026822Y-68835614D01*
X140027095Y-68835683D01*
X140025148Y-68843382D01*
X140020308Y-68883691D01*
X140014500Y-68932056D01*
X140014500Y-69325944D01*
X140021276Y-69382369D01*
X140025148Y-69414617D01*
X140027095Y-69422317D01*
X140024724Y-69422916D01*
X140030719Y-69466843D01*
X140028962Y-69483715D01*
X140025148Y-69493387D01*
X140014500Y-69582056D01*
X140014500Y-69622593D01*
X140013833Y-69628999D01*
X140002916Y-69655605D01*
X139994815Y-69683195D01*
X139989820Y-69687522D01*
X139987311Y-69693639D01*
X139963739Y-69710121D01*
X139942011Y-69728950D01*
X139934468Y-69730590D01*
X139930052Y-69733679D01*
X139918133Y-69734144D01*
X139890500Y-69740156D01*
X139704691Y-69740156D01*
X139583472Y-69764268D01*
X139583464Y-69764270D01*
X139529064Y-69786803D01*
X139529058Y-69786806D01*
X139521855Y-69789790D01*
X139469266Y-69811573D01*
X139377458Y-69872917D01*
X139373812Y-69875352D01*
X139373807Y-69875356D01*
X139366488Y-69880246D01*
X139366487Y-69880247D01*
X139027787Y-70218949D01*
X138928464Y-70318272D01*
X138902840Y-70343896D01*
X138841058Y-70405677D01*
X138841057Y-70405679D01*
X138772306Y-70508572D01*
X138772206Y-70508892D01*
X138725086Y-70622648D01*
X138705724Y-70719992D01*
X138704446Y-70726411D01*
X138704445Y-70726418D01*
X138700972Y-70743880D01*
X138700972Y-72400500D01*
X138681287Y-72467539D01*
X138628483Y-72513294D01*
X138576972Y-72524500D01*
X136969500Y-72524500D01*
X136902461Y-72504815D01*
X136856706Y-72452011D01*
X136845500Y-72400500D01*
X136845500Y-72182055D01*
X136843586Y-72166121D01*
X136834852Y-72093387D01*
X136834851Y-72093385D01*
X136834024Y-72086497D01*
X136845574Y-72017589D01*
X136892546Y-71965864D01*
X136960025Y-71947746D01*
X137004591Y-71957151D01*
X137029871Y-71967622D01*
X137029876Y-71967624D01*
X137029880Y-71967624D01*
X137029881Y-71967625D01*
X137200177Y-72001500D01*
X137200180Y-72001500D01*
X137373822Y-72001500D01*
X137488394Y-71978709D01*
X137544124Y-71967624D01*
X137704547Y-71901175D01*
X137848923Y-71804706D01*
X137971706Y-71681923D01*
X138068175Y-71537547D01*
X138134624Y-71377124D01*
X138155904Y-71270145D01*
X138168500Y-71206822D01*
X138168500Y-71033177D01*
X138134625Y-70862881D01*
X138134624Y-70862880D01*
X138134624Y-70862876D01*
X138075440Y-70719992D01*
X138068178Y-70702459D01*
X138068171Y-70702446D01*
X137971706Y-70558077D01*
X137971703Y-70558073D01*
X137848926Y-70435296D01*
X137848922Y-70435293D01*
X137704553Y-70338828D01*
X137704540Y-70338821D01*
X137544128Y-70272377D01*
X137544118Y-70272374D01*
X137373822Y-70238500D01*
X137373820Y-70238500D01*
X137200180Y-70238500D01*
X137200178Y-70238500D01*
X137029881Y-70272374D01*
X137029872Y-70272377D01*
X137009915Y-70280643D01*
X136986641Y-70283144D01*
X136964280Y-70290067D01*
X136952549Y-70286808D01*
X136940445Y-70288109D01*
X136919512Y-70277629D01*
X136896959Y-70271364D01*
X136888852Y-70262280D01*
X136877967Y-70256831D01*
X136866023Y-70236699D01*
X136850438Y-70219235D01*
X136845477Y-70202066D01*
X136842318Y-70196741D01*
X136840000Y-70185519D01*
X136839636Y-70183229D01*
X136834852Y-70143387D01*
X136832275Y-70136853D01*
X136830146Y-70123439D01*
X136832943Y-70101735D01*
X136830969Y-70079944D01*
X136833185Y-70072396D01*
X136832903Y-70072325D01*
X136834849Y-70064620D01*
X136834852Y-70064613D01*
X136845500Y-69975944D01*
X136845500Y-69582056D01*
X136834852Y-69493387D01*
X136834849Y-69493381D01*
X136832903Y-69485675D01*
X136835948Y-69484905D01*
X136830969Y-69429944D01*
X136833185Y-69422396D01*
X136832903Y-69422325D01*
X136834850Y-69414617D01*
X136834852Y-69414613D01*
X136845500Y-69325944D01*
X136845500Y-68932056D01*
X136834852Y-68843387D01*
X136834849Y-68843381D01*
X136832903Y-68835675D01*
X136835948Y-68834905D01*
X136830969Y-68779944D01*
X136833185Y-68772396D01*
X136832903Y-68772325D01*
X136834850Y-68764617D01*
X136834852Y-68764613D01*
X136845500Y-68675944D01*
X136845500Y-68282056D01*
X136834852Y-68193387D01*
X136834849Y-68193381D01*
X136832903Y-68185675D01*
X136835948Y-68184905D01*
X136830969Y-68129944D01*
X136833185Y-68122396D01*
X136832903Y-68122325D01*
X136834850Y-68114617D01*
X136834852Y-68114613D01*
X136845500Y-68025944D01*
X136845500Y-67632056D01*
X136834852Y-67543387D01*
X136779210Y-67402289D01*
X136779209Y-67402288D01*
X136779209Y-67402287D01*
X136687564Y-67281435D01*
X136566712Y-67189790D01*
X136425611Y-67134147D01*
X136380097Y-67128682D01*
X136336944Y-67123500D01*
X134783056Y-67123500D01*
X134743140Y-67128293D01*
X134694388Y-67134147D01*
X134614222Y-67165761D01*
X134553289Y-67189790D01*
X134553287Y-67189790D01*
X134545518Y-67192855D01*
X134500028Y-67201500D01*
X130685316Y-67201500D01*
X130661125Y-67199117D01*
X130629643Y-67192855D01*
X130617804Y-67190500D01*
X130617803Y-67190500D01*
X130494197Y-67190500D01*
X130494192Y-67190500D01*
X130372972Y-67214612D01*
X130372964Y-67214614D01*
X130258766Y-67261917D01*
X130155997Y-67330585D01*
X130155994Y-67330587D01*
X130029398Y-67457182D01*
X129968074Y-67490666D01*
X129941717Y-67493500D01*
X128642129Y-67493500D01*
X128642123Y-67493501D01*
X128582516Y-67499908D01*
X128447671Y-67550202D01*
X128447664Y-67550206D01*
X128332455Y-67636452D01*
X128332452Y-67636455D01*
X128246206Y-67751664D01*
X128246202Y-67751671D01*
X128195908Y-67886517D01*
X128189501Y-67946116D01*
X128189500Y-67946135D01*
X127837670Y-67946135D01*
X127892846Y-67740217D01*
X127930497Y-67454228D01*
X127930497Y-67165772D01*
X127892846Y-66879783D01*
X127818188Y-66601156D01*
X127707801Y-66334657D01*
X127680437Y-66287261D01*
X127563576Y-66084850D01*
X127555676Y-66074555D01*
X127387971Y-65855998D01*
X127387969Y-65855996D01*
X127387966Y-65855992D01*
X127184007Y-65652033D01*
X127184002Y-65652029D01*
X126976589Y-65492874D01*
X126935388Y-65436448D01*
X126931233Y-65366702D01*
X126965445Y-65305781D01*
X127027163Y-65273029D01*
X127052077Y-65270500D01*
X149807923Y-65270500D01*
X149874962Y-65290185D01*
G37*
%TD.AperFunction*%
%TD*%
M02*
