%TF.GenerationSoftware,KiCad,Pcbnew,9.0.7*%
%TF.CreationDate,2026-04-16T11:45:54-05:00*%
%TF.ProjectId,HAND_Project_ADS1220_Amplifier,48414e44-5f50-4726-9f6a-6563745f4144,rev?*%
%TF.SameCoordinates,Original*%
%TF.FileFunction,Legend,Top*%
%TF.FilePolarity,Positive*%
%FSLAX46Y46*%
G04 Gerber Fmt 4.6, Leading zero omitted, Abs format (unit mm)*
G04 Created by KiCad (PCBNEW 9.0.7) date 2026-04-16 11:45:54*
%MOMM*%
%LPD*%
G01*
G04 APERTURE LIST*
%ADD10C,0.080010*%
%ADD11C,0.120000*%
%ADD12C,0.127000*%
%ADD13C,0.200000*%
G04 APERTURE END LIST*
D10*
X126646238Y-86511922D02*
X126570038Y-86473822D01*
X126570038Y-86473822D02*
X126455738Y-86473822D01*
X126455738Y-86473822D02*
X126341438Y-86511922D01*
X126341438Y-86511922D02*
X126265238Y-86588122D01*
X126265238Y-86588122D02*
X126227138Y-86664322D01*
X126227138Y-86664322D02*
X126189038Y-86816722D01*
X126189038Y-86816722D02*
X126189038Y-86931022D01*
X126189038Y-86931022D02*
X126227138Y-87083422D01*
X126227138Y-87083422D02*
X126265238Y-87159622D01*
X126265238Y-87159622D02*
X126341438Y-87235822D01*
X126341438Y-87235822D02*
X126455738Y-87273922D01*
X126455738Y-87273922D02*
X126531938Y-87273922D01*
X126531938Y-87273922D02*
X126646238Y-87235822D01*
X126646238Y-87235822D02*
X126684338Y-87197722D01*
X126684338Y-87197722D02*
X126684338Y-86931022D01*
X126684338Y-86931022D02*
X126531938Y-86931022D01*
X127027238Y-87273922D02*
X127027238Y-86473822D01*
X127027238Y-86473822D02*
X127484438Y-87273922D01*
X127484438Y-87273922D02*
X127484438Y-86473822D01*
X127865438Y-87273922D02*
X127865438Y-86473822D01*
X127865438Y-86473822D02*
X128055938Y-86473822D01*
X128055938Y-86473822D02*
X128170238Y-86511922D01*
X128170238Y-86511922D02*
X128246438Y-86588122D01*
X128246438Y-86588122D02*
X128284538Y-86664322D01*
X128284538Y-86664322D02*
X128322638Y-86816722D01*
X128322638Y-86816722D02*
X128322638Y-86931022D01*
X128322638Y-86931022D02*
X128284538Y-87083422D01*
X128284538Y-87083422D02*
X128246438Y-87159622D01*
X128246438Y-87159622D02*
X128170238Y-87235822D01*
X128170238Y-87235822D02*
X128055938Y-87273922D01*
X128055938Y-87273922D02*
X127865438Y-87273922D01*
X127624138Y-83933822D02*
X127243138Y-83933822D01*
X127243138Y-83933822D02*
X127205038Y-84314822D01*
X127205038Y-84314822D02*
X127243138Y-84276722D01*
X127243138Y-84276722D02*
X127319338Y-84238622D01*
X127319338Y-84238622D02*
X127509838Y-84238622D01*
X127509838Y-84238622D02*
X127586038Y-84276722D01*
X127586038Y-84276722D02*
X127624138Y-84314822D01*
X127624138Y-84314822D02*
X127662238Y-84391022D01*
X127662238Y-84391022D02*
X127662238Y-84581522D01*
X127662238Y-84581522D02*
X127624138Y-84657722D01*
X127624138Y-84657722D02*
X127586038Y-84695822D01*
X127586038Y-84695822D02*
X127509838Y-84733922D01*
X127509838Y-84733922D02*
X127319338Y-84733922D01*
X127319338Y-84733922D02*
X127243138Y-84695822D01*
X127243138Y-84695822D02*
X127205038Y-84657722D01*
X127890838Y-83933822D02*
X128157538Y-84733922D01*
X128157538Y-84733922D02*
X128424238Y-83933822D01*
X128314450Y-90243881D02*
X128428750Y-90281981D01*
X128428750Y-90281981D02*
X128619250Y-90281981D01*
X128619250Y-90281981D02*
X128695450Y-90243881D01*
X128695450Y-90243881D02*
X128733550Y-90205781D01*
X128733550Y-90205781D02*
X128771650Y-90129581D01*
X128771650Y-90129581D02*
X128771650Y-90053381D01*
X128771650Y-90053381D02*
X128733550Y-89977181D01*
X128733550Y-89977181D02*
X128695450Y-89939081D01*
X128695450Y-89939081D02*
X128619250Y-89900981D01*
X128619250Y-89900981D02*
X128466850Y-89862881D01*
X128466850Y-89862881D02*
X128390650Y-89824781D01*
X128390650Y-89824781D02*
X128352550Y-89786681D01*
X128352550Y-89786681D02*
X128314450Y-89710481D01*
X128314450Y-89710481D02*
X128314450Y-89634281D01*
X128314450Y-89634281D02*
X128352550Y-89558081D01*
X128352550Y-89558081D02*
X128390650Y-89519981D01*
X128390650Y-89519981D02*
X128466850Y-89481881D01*
X128466850Y-89481881D02*
X128657350Y-89481881D01*
X128657350Y-89481881D02*
X128771650Y-89519981D01*
X129000250Y-89748581D02*
X129305050Y-89748581D01*
X129114550Y-89481881D02*
X129114550Y-90167681D01*
X129114550Y-90167681D02*
X129152650Y-90243881D01*
X129152650Y-90243881D02*
X129228850Y-90281981D01*
X129228850Y-90281981D02*
X129305050Y-90281981D01*
X129571750Y-90281981D02*
X129571750Y-89748581D01*
X129571750Y-89900981D02*
X129609850Y-89824781D01*
X129609850Y-89824781D02*
X129647950Y-89786681D01*
X129647950Y-89786681D02*
X129724150Y-89748581D01*
X129724150Y-89748581D02*
X129800350Y-89748581D01*
X130409950Y-90281981D02*
X130409950Y-89862881D01*
X130409950Y-89862881D02*
X130371850Y-89786681D01*
X130371850Y-89786681D02*
X130295650Y-89748581D01*
X130295650Y-89748581D02*
X130143250Y-89748581D01*
X130143250Y-89748581D02*
X130067050Y-89786681D01*
X130409950Y-90243881D02*
X130333750Y-90281981D01*
X130333750Y-90281981D02*
X130143250Y-90281981D01*
X130143250Y-90281981D02*
X130067050Y-90243881D01*
X130067050Y-90243881D02*
X130028950Y-90167681D01*
X130028950Y-90167681D02*
X130028950Y-90091481D01*
X130028950Y-90091481D02*
X130067050Y-90015281D01*
X130067050Y-90015281D02*
X130143250Y-89977181D01*
X130143250Y-89977181D02*
X130333750Y-89977181D01*
X130333750Y-89977181D02*
X130409950Y-89939081D01*
X130790950Y-90281981D02*
X130790950Y-89748581D01*
X130790950Y-89481881D02*
X130752850Y-89519981D01*
X130752850Y-89519981D02*
X130790950Y-89558081D01*
X130790950Y-89558081D02*
X130829050Y-89519981D01*
X130829050Y-89519981D02*
X130790950Y-89481881D01*
X130790950Y-89481881D02*
X130790950Y-89558081D01*
X131171950Y-89748581D02*
X131171950Y-90281981D01*
X131171950Y-89824781D02*
X131210050Y-89786681D01*
X131210050Y-89786681D02*
X131286250Y-89748581D01*
X131286250Y-89748581D02*
X131400550Y-89748581D01*
X131400550Y-89748581D02*
X131476750Y-89786681D01*
X131476750Y-89786681D02*
X131514850Y-89862881D01*
X131514850Y-89862881D02*
X131514850Y-90281981D01*
X132924550Y-89519981D02*
X132848350Y-89481881D01*
X132848350Y-89481881D02*
X132734050Y-89481881D01*
X132734050Y-89481881D02*
X132619750Y-89519981D01*
X132619750Y-89519981D02*
X132543550Y-89596181D01*
X132543550Y-89596181D02*
X132505450Y-89672381D01*
X132505450Y-89672381D02*
X132467350Y-89824781D01*
X132467350Y-89824781D02*
X132467350Y-89939081D01*
X132467350Y-89939081D02*
X132505450Y-90091481D01*
X132505450Y-90091481D02*
X132543550Y-90167681D01*
X132543550Y-90167681D02*
X132619750Y-90243881D01*
X132619750Y-90243881D02*
X132734050Y-90281981D01*
X132734050Y-90281981D02*
X132810250Y-90281981D01*
X132810250Y-90281981D02*
X132924550Y-90243881D01*
X132924550Y-90243881D02*
X132962650Y-90205781D01*
X132962650Y-90205781D02*
X132962650Y-89939081D01*
X132962650Y-89939081D02*
X132810250Y-89939081D01*
X133648450Y-90281981D02*
X133648450Y-89862881D01*
X133648450Y-89862881D02*
X133610350Y-89786681D01*
X133610350Y-89786681D02*
X133534150Y-89748581D01*
X133534150Y-89748581D02*
X133381750Y-89748581D01*
X133381750Y-89748581D02*
X133305550Y-89786681D01*
X133648450Y-90243881D02*
X133572250Y-90281981D01*
X133572250Y-90281981D02*
X133381750Y-90281981D01*
X133381750Y-90281981D02*
X133305550Y-90243881D01*
X133305550Y-90243881D02*
X133267450Y-90167681D01*
X133267450Y-90167681D02*
X133267450Y-90091481D01*
X133267450Y-90091481D02*
X133305550Y-90015281D01*
X133305550Y-90015281D02*
X133381750Y-89977181D01*
X133381750Y-89977181D02*
X133572250Y-89977181D01*
X133572250Y-89977181D02*
X133648450Y-89939081D01*
X134372350Y-89748581D02*
X134372350Y-90281981D01*
X134029450Y-89748581D02*
X134029450Y-90167681D01*
X134029450Y-90167681D02*
X134067550Y-90243881D01*
X134067550Y-90243881D02*
X134143750Y-90281981D01*
X134143750Y-90281981D02*
X134258050Y-90281981D01*
X134258050Y-90281981D02*
X134334250Y-90243881D01*
X134334250Y-90243881D02*
X134372350Y-90205781D01*
X135096250Y-89748581D02*
X135096250Y-90396281D01*
X135096250Y-90396281D02*
X135058150Y-90472481D01*
X135058150Y-90472481D02*
X135020050Y-90510581D01*
X135020050Y-90510581D02*
X134943850Y-90548681D01*
X134943850Y-90548681D02*
X134829550Y-90548681D01*
X134829550Y-90548681D02*
X134753350Y-90510581D01*
X135096250Y-90243881D02*
X135020050Y-90281981D01*
X135020050Y-90281981D02*
X134867650Y-90281981D01*
X134867650Y-90281981D02*
X134791450Y-90243881D01*
X134791450Y-90243881D02*
X134753350Y-90205781D01*
X134753350Y-90205781D02*
X134715250Y-90129581D01*
X134715250Y-90129581D02*
X134715250Y-89900981D01*
X134715250Y-89900981D02*
X134753350Y-89824781D01*
X134753350Y-89824781D02*
X134791450Y-89786681D01*
X134791450Y-89786681D02*
X134867650Y-89748581D01*
X134867650Y-89748581D02*
X135020050Y-89748581D01*
X135020050Y-89748581D02*
X135096250Y-89786681D01*
X135782050Y-90243881D02*
X135705850Y-90281981D01*
X135705850Y-90281981D02*
X135553450Y-90281981D01*
X135553450Y-90281981D02*
X135477250Y-90243881D01*
X135477250Y-90243881D02*
X135439150Y-90167681D01*
X135439150Y-90167681D02*
X135439150Y-89862881D01*
X135439150Y-89862881D02*
X135477250Y-89786681D01*
X135477250Y-89786681D02*
X135553450Y-89748581D01*
X135553450Y-89748581D02*
X135705850Y-89748581D01*
X135705850Y-89748581D02*
X135782050Y-89786681D01*
X135782050Y-89786681D02*
X135820150Y-89862881D01*
X135820150Y-89862881D02*
X135820150Y-89939081D01*
X135820150Y-89939081D02*
X135439150Y-90015281D01*
X137229850Y-90205781D02*
X137191750Y-90243881D01*
X137191750Y-90243881D02*
X137077450Y-90281981D01*
X137077450Y-90281981D02*
X137001250Y-90281981D01*
X137001250Y-90281981D02*
X136886950Y-90243881D01*
X136886950Y-90243881D02*
X136810750Y-90167681D01*
X136810750Y-90167681D02*
X136772650Y-90091481D01*
X136772650Y-90091481D02*
X136734550Y-89939081D01*
X136734550Y-89939081D02*
X136734550Y-89824781D01*
X136734550Y-89824781D02*
X136772650Y-89672381D01*
X136772650Y-89672381D02*
X136810750Y-89596181D01*
X136810750Y-89596181D02*
X136886950Y-89519981D01*
X136886950Y-89519981D02*
X137001250Y-89481881D01*
X137001250Y-89481881D02*
X137077450Y-89481881D01*
X137077450Y-89481881D02*
X137191750Y-89519981D01*
X137191750Y-89519981D02*
X137229850Y-89558081D01*
X137687050Y-90281981D02*
X137610850Y-90243881D01*
X137610850Y-90243881D02*
X137572750Y-90205781D01*
X137572750Y-90205781D02*
X137534650Y-90129581D01*
X137534650Y-90129581D02*
X137534650Y-89900981D01*
X137534650Y-89900981D02*
X137572750Y-89824781D01*
X137572750Y-89824781D02*
X137610850Y-89786681D01*
X137610850Y-89786681D02*
X137687050Y-89748581D01*
X137687050Y-89748581D02*
X137801350Y-89748581D01*
X137801350Y-89748581D02*
X137877550Y-89786681D01*
X137877550Y-89786681D02*
X137915650Y-89824781D01*
X137915650Y-89824781D02*
X137953750Y-89900981D01*
X137953750Y-89900981D02*
X137953750Y-90129581D01*
X137953750Y-90129581D02*
X137915650Y-90205781D01*
X137915650Y-90205781D02*
X137877550Y-90243881D01*
X137877550Y-90243881D02*
X137801350Y-90281981D01*
X137801350Y-90281981D02*
X137687050Y-90281981D01*
X138296650Y-89748581D02*
X138296650Y-90281981D01*
X138296650Y-89824781D02*
X138334750Y-89786681D01*
X138334750Y-89786681D02*
X138410950Y-89748581D01*
X138410950Y-89748581D02*
X138525250Y-89748581D01*
X138525250Y-89748581D02*
X138601450Y-89786681D01*
X138601450Y-89786681D02*
X138639550Y-89862881D01*
X138639550Y-89862881D02*
X138639550Y-90281981D01*
X139020550Y-89748581D02*
X139020550Y-90281981D01*
X139020550Y-89824781D02*
X139058650Y-89786681D01*
X139058650Y-89786681D02*
X139134850Y-89748581D01*
X139134850Y-89748581D02*
X139249150Y-89748581D01*
X139249150Y-89748581D02*
X139325350Y-89786681D01*
X139325350Y-89786681D02*
X139363450Y-89862881D01*
X139363450Y-89862881D02*
X139363450Y-90281981D01*
X140049250Y-90243881D02*
X139973050Y-90281981D01*
X139973050Y-90281981D02*
X139820650Y-90281981D01*
X139820650Y-90281981D02*
X139744450Y-90243881D01*
X139744450Y-90243881D02*
X139706350Y-90167681D01*
X139706350Y-90167681D02*
X139706350Y-89862881D01*
X139706350Y-89862881D02*
X139744450Y-89786681D01*
X139744450Y-89786681D02*
X139820650Y-89748581D01*
X139820650Y-89748581D02*
X139973050Y-89748581D01*
X139973050Y-89748581D02*
X140049250Y-89786681D01*
X140049250Y-89786681D02*
X140087350Y-89862881D01*
X140087350Y-89862881D02*
X140087350Y-89939081D01*
X140087350Y-89939081D02*
X139706350Y-90015281D01*
X140773150Y-90243881D02*
X140696950Y-90281981D01*
X140696950Y-90281981D02*
X140544550Y-90281981D01*
X140544550Y-90281981D02*
X140468350Y-90243881D01*
X140468350Y-90243881D02*
X140430250Y-90205781D01*
X140430250Y-90205781D02*
X140392150Y-90129581D01*
X140392150Y-90129581D02*
X140392150Y-89900981D01*
X140392150Y-89900981D02*
X140430250Y-89824781D01*
X140430250Y-89824781D02*
X140468350Y-89786681D01*
X140468350Y-89786681D02*
X140544550Y-89748581D01*
X140544550Y-89748581D02*
X140696950Y-89748581D01*
X140696950Y-89748581D02*
X140773150Y-89786681D01*
X141001750Y-89748581D02*
X141306550Y-89748581D01*
X141116050Y-89481881D02*
X141116050Y-90167681D01*
X141116050Y-90167681D02*
X141154150Y-90243881D01*
X141154150Y-90243881D02*
X141230350Y-90281981D01*
X141230350Y-90281981D02*
X141306550Y-90281981D01*
X141687550Y-90281981D02*
X141611350Y-90243881D01*
X141611350Y-90243881D02*
X141573250Y-90205781D01*
X141573250Y-90205781D02*
X141535150Y-90129581D01*
X141535150Y-90129581D02*
X141535150Y-89900981D01*
X141535150Y-89900981D02*
X141573250Y-89824781D01*
X141573250Y-89824781D02*
X141611350Y-89786681D01*
X141611350Y-89786681D02*
X141687550Y-89748581D01*
X141687550Y-89748581D02*
X141801850Y-89748581D01*
X141801850Y-89748581D02*
X141878050Y-89786681D01*
X141878050Y-89786681D02*
X141916150Y-89824781D01*
X141916150Y-89824781D02*
X141954250Y-89900981D01*
X141954250Y-89900981D02*
X141954250Y-90129581D01*
X141954250Y-90129581D02*
X141916150Y-90205781D01*
X141916150Y-90205781D02*
X141878050Y-90243881D01*
X141878050Y-90243881D02*
X141801850Y-90281981D01*
X141801850Y-90281981D02*
X141687550Y-90281981D01*
X142297150Y-90281981D02*
X142297150Y-89748581D01*
X142297150Y-89900981D02*
X142335250Y-89824781D01*
X142335250Y-89824781D02*
X142373350Y-89786681D01*
X142373350Y-89786681D02*
X142449550Y-89748581D01*
X142449550Y-89748581D02*
X142525750Y-89748581D01*
X131946650Y-79613981D02*
X131679950Y-79232981D01*
X131489450Y-79613981D02*
X131489450Y-78813881D01*
X131489450Y-78813881D02*
X131794250Y-78813881D01*
X131794250Y-78813881D02*
X131870450Y-78851981D01*
X131870450Y-78851981D02*
X131908550Y-78890081D01*
X131908550Y-78890081D02*
X131946650Y-78966281D01*
X131946650Y-78966281D02*
X131946650Y-79080581D01*
X131946650Y-79080581D02*
X131908550Y-79156781D01*
X131908550Y-79156781D02*
X131870450Y-79194881D01*
X131870450Y-79194881D02*
X131794250Y-79232981D01*
X131794250Y-79232981D02*
X131489450Y-79232981D01*
X132708650Y-79613981D02*
X132251450Y-79613981D01*
X132480050Y-79613981D02*
X132480050Y-78813881D01*
X132480050Y-78813881D02*
X132403850Y-78928181D01*
X132403850Y-78928181D02*
X132327650Y-79004381D01*
X132327650Y-79004381D02*
X132251450Y-79042481D01*
X131946650Y-75803981D02*
X131679950Y-75422981D01*
X131489450Y-75803981D02*
X131489450Y-75003881D01*
X131489450Y-75003881D02*
X131794250Y-75003881D01*
X131794250Y-75003881D02*
X131870450Y-75041981D01*
X131870450Y-75041981D02*
X131908550Y-75080081D01*
X131908550Y-75080081D02*
X131946650Y-75156281D01*
X131946650Y-75156281D02*
X131946650Y-75270581D01*
X131946650Y-75270581D02*
X131908550Y-75346781D01*
X131908550Y-75346781D02*
X131870450Y-75384881D01*
X131870450Y-75384881D02*
X131794250Y-75422981D01*
X131794250Y-75422981D02*
X131489450Y-75422981D01*
X132251450Y-75080081D02*
X132289550Y-75041981D01*
X132289550Y-75041981D02*
X132365750Y-75003881D01*
X132365750Y-75003881D02*
X132556250Y-75003881D01*
X132556250Y-75003881D02*
X132632450Y-75041981D01*
X132632450Y-75041981D02*
X132670550Y-75080081D01*
X132670550Y-75080081D02*
X132708650Y-75156281D01*
X132708650Y-75156281D02*
X132708650Y-75232481D01*
X132708650Y-75232481D02*
X132670550Y-75346781D01*
X132670550Y-75346781D02*
X132213350Y-75803981D01*
X132213350Y-75803981D02*
X132708650Y-75803981D01*
X134731981Y-87433150D02*
X133931881Y-87433150D01*
X133931881Y-87433150D02*
X133931881Y-87128350D01*
X133931881Y-87128350D02*
X133969981Y-87052150D01*
X133969981Y-87052150D02*
X134008081Y-87014050D01*
X134008081Y-87014050D02*
X134084281Y-86975950D01*
X134084281Y-86975950D02*
X134198581Y-86975950D01*
X134198581Y-86975950D02*
X134274781Y-87014050D01*
X134274781Y-87014050D02*
X134312881Y-87052150D01*
X134312881Y-87052150D02*
X134350981Y-87128350D01*
X134350981Y-87128350D02*
X134350981Y-87433150D01*
X134731981Y-86518750D02*
X134693881Y-86594950D01*
X134693881Y-86594950D02*
X134655781Y-86633050D01*
X134655781Y-86633050D02*
X134579581Y-86671150D01*
X134579581Y-86671150D02*
X134350981Y-86671150D01*
X134350981Y-86671150D02*
X134274781Y-86633050D01*
X134274781Y-86633050D02*
X134236681Y-86594950D01*
X134236681Y-86594950D02*
X134198581Y-86518750D01*
X134198581Y-86518750D02*
X134198581Y-86404450D01*
X134198581Y-86404450D02*
X134236681Y-86328250D01*
X134236681Y-86328250D02*
X134274781Y-86290150D01*
X134274781Y-86290150D02*
X134350981Y-86252050D01*
X134350981Y-86252050D02*
X134579581Y-86252050D01*
X134579581Y-86252050D02*
X134655781Y-86290150D01*
X134655781Y-86290150D02*
X134693881Y-86328250D01*
X134693881Y-86328250D02*
X134731981Y-86404450D01*
X134731981Y-86404450D02*
X134731981Y-86518750D01*
X134198581Y-85985350D02*
X134731981Y-85832950D01*
X134731981Y-85832950D02*
X134350981Y-85680550D01*
X134350981Y-85680550D02*
X134731981Y-85528150D01*
X134731981Y-85528150D02*
X134198581Y-85375750D01*
X134693881Y-84766150D02*
X134731981Y-84842350D01*
X134731981Y-84842350D02*
X134731981Y-84994750D01*
X134731981Y-84994750D02*
X134693881Y-85070950D01*
X134693881Y-85070950D02*
X134617681Y-85109050D01*
X134617681Y-85109050D02*
X134312881Y-85109050D01*
X134312881Y-85109050D02*
X134236681Y-85070950D01*
X134236681Y-85070950D02*
X134198581Y-84994750D01*
X134198581Y-84994750D02*
X134198581Y-84842350D01*
X134198581Y-84842350D02*
X134236681Y-84766150D01*
X134236681Y-84766150D02*
X134312881Y-84728050D01*
X134312881Y-84728050D02*
X134389081Y-84728050D01*
X134389081Y-84728050D02*
X134465281Y-85109050D01*
X134731981Y-84385150D02*
X134198581Y-84385150D01*
X134350981Y-84385150D02*
X134274781Y-84347050D01*
X134274781Y-84347050D02*
X134236681Y-84308950D01*
X134236681Y-84308950D02*
X134198581Y-84232750D01*
X134198581Y-84232750D02*
X134198581Y-84156550D01*
X137026650Y-74762581D02*
X136988550Y-74800681D01*
X136988550Y-74800681D02*
X136874250Y-74838781D01*
X136874250Y-74838781D02*
X136798050Y-74838781D01*
X136798050Y-74838781D02*
X136683750Y-74800681D01*
X136683750Y-74800681D02*
X136607550Y-74724481D01*
X136607550Y-74724481D02*
X136569450Y-74648281D01*
X136569450Y-74648281D02*
X136531350Y-74495881D01*
X136531350Y-74495881D02*
X136531350Y-74381581D01*
X136531350Y-74381581D02*
X136569450Y-74229181D01*
X136569450Y-74229181D02*
X136607550Y-74152981D01*
X136607550Y-74152981D02*
X136683750Y-74076781D01*
X136683750Y-74076781D02*
X136798050Y-74038681D01*
X136798050Y-74038681D02*
X136874250Y-74038681D01*
X136874250Y-74038681D02*
X136988550Y-74076781D01*
X136988550Y-74076781D02*
X137026650Y-74114881D01*
X137331450Y-74114881D02*
X137369550Y-74076781D01*
X137369550Y-74076781D02*
X137445750Y-74038681D01*
X137445750Y-74038681D02*
X137636250Y-74038681D01*
X137636250Y-74038681D02*
X137712450Y-74076781D01*
X137712450Y-74076781D02*
X137750550Y-74114881D01*
X137750550Y-74114881D02*
X137788650Y-74191081D01*
X137788650Y-74191081D02*
X137788650Y-74267281D01*
X137788650Y-74267281D02*
X137750550Y-74381581D01*
X137750550Y-74381581D02*
X137293350Y-74838781D01*
X137293350Y-74838781D02*
X137788650Y-74838781D01*
X142360650Y-85455981D02*
X142093950Y-85074981D01*
X141903450Y-85455981D02*
X141903450Y-84655881D01*
X141903450Y-84655881D02*
X142208250Y-84655881D01*
X142208250Y-84655881D02*
X142284450Y-84693981D01*
X142284450Y-84693981D02*
X142322550Y-84732081D01*
X142322550Y-84732081D02*
X142360650Y-84808281D01*
X142360650Y-84808281D02*
X142360650Y-84922581D01*
X142360650Y-84922581D02*
X142322550Y-84998781D01*
X142322550Y-84998781D02*
X142284450Y-85036881D01*
X142284450Y-85036881D02*
X142208250Y-85074981D01*
X142208250Y-85074981D02*
X141903450Y-85074981D01*
X142627350Y-84655881D02*
X143122650Y-84655881D01*
X143122650Y-84655881D02*
X142855950Y-84960681D01*
X142855950Y-84960681D02*
X142970250Y-84960681D01*
X142970250Y-84960681D02*
X143046450Y-84998781D01*
X143046450Y-84998781D02*
X143084550Y-85036881D01*
X143084550Y-85036881D02*
X143122650Y-85113081D01*
X143122650Y-85113081D02*
X143122650Y-85303581D01*
X143122650Y-85303581D02*
X143084550Y-85379781D01*
X143084550Y-85379781D02*
X143046450Y-85417881D01*
X143046450Y-85417881D02*
X142970250Y-85455981D01*
X142970250Y-85455981D02*
X142741650Y-85455981D01*
X142741650Y-85455981D02*
X142665450Y-85417881D01*
X142665450Y-85417881D02*
X142627350Y-85379781D01*
X130987800Y-76781881D02*
X131483100Y-76781881D01*
X131483100Y-76781881D02*
X131216400Y-77086681D01*
X131216400Y-77086681D02*
X131330700Y-77086681D01*
X131330700Y-77086681D02*
X131406900Y-77124781D01*
X131406900Y-77124781D02*
X131445000Y-77162881D01*
X131445000Y-77162881D02*
X131483100Y-77239081D01*
X131483100Y-77239081D02*
X131483100Y-77429581D01*
X131483100Y-77429581D02*
X131445000Y-77505781D01*
X131445000Y-77505781D02*
X131406900Y-77543881D01*
X131406900Y-77543881D02*
X131330700Y-77581981D01*
X131330700Y-77581981D02*
X131102100Y-77581981D01*
X131102100Y-77581981D02*
X131025900Y-77543881D01*
X131025900Y-77543881D02*
X130987800Y-77505781D01*
X131826000Y-77505781D02*
X131864100Y-77543881D01*
X131864100Y-77543881D02*
X131826000Y-77581981D01*
X131826000Y-77581981D02*
X131787900Y-77543881D01*
X131787900Y-77543881D02*
X131826000Y-77505781D01*
X131826000Y-77505781D02*
X131826000Y-77581981D01*
X132130800Y-76781881D02*
X132626100Y-76781881D01*
X132626100Y-76781881D02*
X132359400Y-77086681D01*
X132359400Y-77086681D02*
X132473700Y-77086681D01*
X132473700Y-77086681D02*
X132549900Y-77124781D01*
X132549900Y-77124781D02*
X132588000Y-77162881D01*
X132588000Y-77162881D02*
X132626100Y-77239081D01*
X132626100Y-77239081D02*
X132626100Y-77429581D01*
X132626100Y-77429581D02*
X132588000Y-77505781D01*
X132588000Y-77505781D02*
X132549900Y-77543881D01*
X132549900Y-77543881D02*
X132473700Y-77581981D01*
X132473700Y-77581981D02*
X132245100Y-77581981D01*
X132245100Y-77581981D02*
X132168900Y-77543881D01*
X132168900Y-77543881D02*
X132130800Y-77505781D01*
X137534650Y-85379781D02*
X137496550Y-85417881D01*
X137496550Y-85417881D02*
X137382250Y-85455981D01*
X137382250Y-85455981D02*
X137306050Y-85455981D01*
X137306050Y-85455981D02*
X137191750Y-85417881D01*
X137191750Y-85417881D02*
X137115550Y-85341681D01*
X137115550Y-85341681D02*
X137077450Y-85265481D01*
X137077450Y-85265481D02*
X137039350Y-85113081D01*
X137039350Y-85113081D02*
X137039350Y-84998781D01*
X137039350Y-84998781D02*
X137077450Y-84846381D01*
X137077450Y-84846381D02*
X137115550Y-84770181D01*
X137115550Y-84770181D02*
X137191750Y-84693981D01*
X137191750Y-84693981D02*
X137306050Y-84655881D01*
X137306050Y-84655881D02*
X137382250Y-84655881D01*
X137382250Y-84655881D02*
X137496550Y-84693981D01*
X137496550Y-84693981D02*
X137534650Y-84732081D01*
X137801350Y-84655881D02*
X138296650Y-84655881D01*
X138296650Y-84655881D02*
X138029950Y-84960681D01*
X138029950Y-84960681D02*
X138144250Y-84960681D01*
X138144250Y-84960681D02*
X138220450Y-84998781D01*
X138220450Y-84998781D02*
X138258550Y-85036881D01*
X138258550Y-85036881D02*
X138296650Y-85113081D01*
X138296650Y-85113081D02*
X138296650Y-85303581D01*
X138296650Y-85303581D02*
X138258550Y-85379781D01*
X138258550Y-85379781D02*
X138220450Y-85417881D01*
X138220450Y-85417881D02*
X138144250Y-85455981D01*
X138144250Y-85455981D02*
X137915650Y-85455981D01*
X137915650Y-85455981D02*
X137839450Y-85417881D01*
X137839450Y-85417881D02*
X137801350Y-85379781D01*
X132524500Y-80591881D02*
X132143500Y-80591881D01*
X132143500Y-80591881D02*
X132105400Y-80972881D01*
X132105400Y-80972881D02*
X132143500Y-80934781D01*
X132143500Y-80934781D02*
X132219700Y-80896681D01*
X132219700Y-80896681D02*
X132410200Y-80896681D01*
X132410200Y-80896681D02*
X132486400Y-80934781D01*
X132486400Y-80934781D02*
X132524500Y-80972881D01*
X132524500Y-80972881D02*
X132562600Y-81049081D01*
X132562600Y-81049081D02*
X132562600Y-81239581D01*
X132562600Y-81239581D02*
X132524500Y-81315781D01*
X132524500Y-81315781D02*
X132486400Y-81353881D01*
X132486400Y-81353881D02*
X132410200Y-81391981D01*
X132410200Y-81391981D02*
X132219700Y-81391981D01*
X132219700Y-81391981D02*
X132143500Y-81353881D01*
X132143500Y-81353881D02*
X132105400Y-81315781D01*
X137026650Y-82839781D02*
X136988550Y-82877881D01*
X136988550Y-82877881D02*
X136874250Y-82915981D01*
X136874250Y-82915981D02*
X136798050Y-82915981D01*
X136798050Y-82915981D02*
X136683750Y-82877881D01*
X136683750Y-82877881D02*
X136607550Y-82801681D01*
X136607550Y-82801681D02*
X136569450Y-82725481D01*
X136569450Y-82725481D02*
X136531350Y-82573081D01*
X136531350Y-82573081D02*
X136531350Y-82458781D01*
X136531350Y-82458781D02*
X136569450Y-82306381D01*
X136569450Y-82306381D02*
X136607550Y-82230181D01*
X136607550Y-82230181D02*
X136683750Y-82153981D01*
X136683750Y-82153981D02*
X136798050Y-82115881D01*
X136798050Y-82115881D02*
X136874250Y-82115881D01*
X136874250Y-82115881D02*
X136988550Y-82153981D01*
X136988550Y-82153981D02*
X137026650Y-82192081D01*
X137788650Y-82915981D02*
X137331450Y-82915981D01*
X137560050Y-82915981D02*
X137560050Y-82115881D01*
X137560050Y-82115881D02*
X137483850Y-82230181D01*
X137483850Y-82230181D02*
X137407650Y-82306381D01*
X137407650Y-82306381D02*
X137331450Y-82344481D01*
X135934450Y-68463381D02*
X136315450Y-68463381D01*
X135858250Y-68691981D02*
X136124950Y-67891881D01*
X136124950Y-67891881D02*
X136391650Y-68691981D01*
X136658350Y-68691981D02*
X136658350Y-67891881D01*
X136658350Y-67891881D02*
X136848850Y-67891881D01*
X136848850Y-67891881D02*
X136963150Y-67929981D01*
X136963150Y-67929981D02*
X137039350Y-68006181D01*
X137039350Y-68006181D02*
X137077450Y-68082381D01*
X137077450Y-68082381D02*
X137115550Y-68234781D01*
X137115550Y-68234781D02*
X137115550Y-68349081D01*
X137115550Y-68349081D02*
X137077450Y-68501481D01*
X137077450Y-68501481D02*
X137039350Y-68577681D01*
X137039350Y-68577681D02*
X136963150Y-68653881D01*
X136963150Y-68653881D02*
X136848850Y-68691981D01*
X136848850Y-68691981D02*
X136658350Y-68691981D01*
X137420350Y-68653881D02*
X137534650Y-68691981D01*
X137534650Y-68691981D02*
X137725150Y-68691981D01*
X137725150Y-68691981D02*
X137801350Y-68653881D01*
X137801350Y-68653881D02*
X137839450Y-68615781D01*
X137839450Y-68615781D02*
X137877550Y-68539581D01*
X137877550Y-68539581D02*
X137877550Y-68463381D01*
X137877550Y-68463381D02*
X137839450Y-68387181D01*
X137839450Y-68387181D02*
X137801350Y-68349081D01*
X137801350Y-68349081D02*
X137725150Y-68310981D01*
X137725150Y-68310981D02*
X137572750Y-68272881D01*
X137572750Y-68272881D02*
X137496550Y-68234781D01*
X137496550Y-68234781D02*
X137458450Y-68196681D01*
X137458450Y-68196681D02*
X137420350Y-68120481D01*
X137420350Y-68120481D02*
X137420350Y-68044281D01*
X137420350Y-68044281D02*
X137458450Y-67968081D01*
X137458450Y-67968081D02*
X137496550Y-67929981D01*
X137496550Y-67929981D02*
X137572750Y-67891881D01*
X137572750Y-67891881D02*
X137763250Y-67891881D01*
X137763250Y-67891881D02*
X137877550Y-67929981D01*
X138639550Y-68691981D02*
X138182350Y-68691981D01*
X138410950Y-68691981D02*
X138410950Y-67891881D01*
X138410950Y-67891881D02*
X138334750Y-68006181D01*
X138334750Y-68006181D02*
X138258550Y-68082381D01*
X138258550Y-68082381D02*
X138182350Y-68120481D01*
X138944350Y-67968081D02*
X138982450Y-67929981D01*
X138982450Y-67929981D02*
X139058650Y-67891881D01*
X139058650Y-67891881D02*
X139249150Y-67891881D01*
X139249150Y-67891881D02*
X139325350Y-67929981D01*
X139325350Y-67929981D02*
X139363450Y-67968081D01*
X139363450Y-67968081D02*
X139401550Y-68044281D01*
X139401550Y-68044281D02*
X139401550Y-68120481D01*
X139401550Y-68120481D02*
X139363450Y-68234781D01*
X139363450Y-68234781D02*
X138906250Y-68691981D01*
X138906250Y-68691981D02*
X139401550Y-68691981D01*
X139706350Y-67968081D02*
X139744450Y-67929981D01*
X139744450Y-67929981D02*
X139820650Y-67891881D01*
X139820650Y-67891881D02*
X140011150Y-67891881D01*
X140011150Y-67891881D02*
X140087350Y-67929981D01*
X140087350Y-67929981D02*
X140125450Y-67968081D01*
X140125450Y-67968081D02*
X140163550Y-68044281D01*
X140163550Y-68044281D02*
X140163550Y-68120481D01*
X140163550Y-68120481D02*
X140125450Y-68234781D01*
X140125450Y-68234781D02*
X139668250Y-68691981D01*
X139668250Y-68691981D02*
X140163550Y-68691981D01*
X140658850Y-67891881D02*
X140735050Y-67891881D01*
X140735050Y-67891881D02*
X140811250Y-67929981D01*
X140811250Y-67929981D02*
X140849350Y-67968081D01*
X140849350Y-67968081D02*
X140887450Y-68044281D01*
X140887450Y-68044281D02*
X140925550Y-68196681D01*
X140925550Y-68196681D02*
X140925550Y-68387181D01*
X140925550Y-68387181D02*
X140887450Y-68539581D01*
X140887450Y-68539581D02*
X140849350Y-68615781D01*
X140849350Y-68615781D02*
X140811250Y-68653881D01*
X140811250Y-68653881D02*
X140735050Y-68691981D01*
X140735050Y-68691981D02*
X140658850Y-68691981D01*
X140658850Y-68691981D02*
X140582650Y-68653881D01*
X140582650Y-68653881D02*
X140544550Y-68615781D01*
X140544550Y-68615781D02*
X140506450Y-68539581D01*
X140506450Y-68539581D02*
X140468350Y-68387181D01*
X140468350Y-68387181D02*
X140468350Y-68196681D01*
X140468350Y-68196681D02*
X140506450Y-68044281D01*
X140506450Y-68044281D02*
X140544550Y-67968081D01*
X140544550Y-67968081D02*
X140582650Y-67929981D01*
X140582650Y-67929981D02*
X140658850Y-67891881D01*
X145205450Y-80629981D02*
X145205450Y-79829881D01*
X145205450Y-79829881D02*
X145395950Y-79829881D01*
X145395950Y-79829881D02*
X145510250Y-79867981D01*
X145510250Y-79867981D02*
X145586450Y-79944181D01*
X145586450Y-79944181D02*
X145624550Y-80020381D01*
X145624550Y-80020381D02*
X145662650Y-80172781D01*
X145662650Y-80172781D02*
X145662650Y-80287081D01*
X145662650Y-80287081D02*
X145624550Y-80439481D01*
X145624550Y-80439481D02*
X145586450Y-80515681D01*
X145586450Y-80515681D02*
X145510250Y-80591881D01*
X145510250Y-80591881D02*
X145395950Y-80629981D01*
X145395950Y-80629981D02*
X145205450Y-80629981D01*
X146424650Y-80629981D02*
X145967450Y-80629981D01*
X146196050Y-80629981D02*
X146196050Y-79829881D01*
X146196050Y-79829881D02*
X146119850Y-79944181D01*
X146119850Y-79944181D02*
X146043650Y-80020381D01*
X146043650Y-80020381D02*
X145967450Y-80058481D01*
X145205450Y-76819981D02*
X145205450Y-76019881D01*
X145205450Y-76019881D02*
X145395950Y-76019881D01*
X145395950Y-76019881D02*
X145510250Y-76057981D01*
X145510250Y-76057981D02*
X145586450Y-76134181D01*
X145586450Y-76134181D02*
X145624550Y-76210381D01*
X145624550Y-76210381D02*
X145662650Y-76362781D01*
X145662650Y-76362781D02*
X145662650Y-76477081D01*
X145662650Y-76477081D02*
X145624550Y-76629481D01*
X145624550Y-76629481D02*
X145586450Y-76705681D01*
X145586450Y-76705681D02*
X145510250Y-76781881D01*
X145510250Y-76781881D02*
X145395950Y-76819981D01*
X145395950Y-76819981D02*
X145205450Y-76819981D01*
X145967450Y-76096081D02*
X146005550Y-76057981D01*
X146005550Y-76057981D02*
X146081750Y-76019881D01*
X146081750Y-76019881D02*
X146272250Y-76019881D01*
X146272250Y-76019881D02*
X146348450Y-76057981D01*
X146348450Y-76057981D02*
X146386550Y-76096081D01*
X146386550Y-76096081D02*
X146424650Y-76172281D01*
X146424650Y-76172281D02*
X146424650Y-76248481D01*
X146424650Y-76248481D02*
X146386550Y-76362781D01*
X146386550Y-76362781D02*
X145929350Y-76819981D01*
X145929350Y-76819981D02*
X146424650Y-76819981D01*
X147440650Y-83169981D02*
X147173950Y-82788981D01*
X146983450Y-83169981D02*
X146983450Y-82369881D01*
X146983450Y-82369881D02*
X147288250Y-82369881D01*
X147288250Y-82369881D02*
X147364450Y-82407981D01*
X147364450Y-82407981D02*
X147402550Y-82446081D01*
X147402550Y-82446081D02*
X147440650Y-82522281D01*
X147440650Y-82522281D02*
X147440650Y-82636581D01*
X147440650Y-82636581D02*
X147402550Y-82712781D01*
X147402550Y-82712781D02*
X147364450Y-82750881D01*
X147364450Y-82750881D02*
X147288250Y-82788981D01*
X147288250Y-82788981D02*
X146983450Y-82788981D01*
X148126450Y-82636581D02*
X148126450Y-83169981D01*
X147935950Y-82331781D02*
X147745450Y-82903281D01*
X147745450Y-82903281D02*
X148240750Y-82903281D01*
X142614650Y-83093781D02*
X142576550Y-83131881D01*
X142576550Y-83131881D02*
X142462250Y-83169981D01*
X142462250Y-83169981D02*
X142386050Y-83169981D01*
X142386050Y-83169981D02*
X142271750Y-83131881D01*
X142271750Y-83131881D02*
X142195550Y-83055681D01*
X142195550Y-83055681D02*
X142157450Y-82979481D01*
X142157450Y-82979481D02*
X142119350Y-82827081D01*
X142119350Y-82827081D02*
X142119350Y-82712781D01*
X142119350Y-82712781D02*
X142157450Y-82560381D01*
X142157450Y-82560381D02*
X142195550Y-82484181D01*
X142195550Y-82484181D02*
X142271750Y-82407981D01*
X142271750Y-82407981D02*
X142386050Y-82369881D01*
X142386050Y-82369881D02*
X142462250Y-82369881D01*
X142462250Y-82369881D02*
X142576550Y-82407981D01*
X142576550Y-82407981D02*
X142614650Y-82446081D01*
X143300450Y-82636581D02*
X143300450Y-83169981D01*
X143109950Y-82331781D02*
X142919450Y-82903281D01*
X142919450Y-82903281D02*
X143414750Y-82903281D01*
D11*
%TO.C,Strain Gauge Connector*%
X128430000Y-90946000D02*
X148670000Y-90946000D01*
X128430000Y-93966000D02*
X148670000Y-93966000D01*
X128430000Y-98866000D02*
X148670000Y-98866000D01*
X128430000Y-100366000D02*
X148670000Y-100366000D01*
X128430000Y-100986000D02*
X128430000Y-90946000D01*
X130750000Y-100986000D02*
X128430000Y-100986000D01*
X148670000Y-90946000D02*
X148670000Y-100986000D01*
X148670000Y-100986000D02*
X131350000Y-100986000D01*
X131490000Y-101596000D02*
X130610000Y-101596000D01*
X131050000Y-100986000D01*
X131490000Y-101596000D01*
G36*
X131490000Y-101596000D02*
G01*
X130610000Y-101596000D01*
X131050000Y-100986000D01*
X131490000Y-101596000D01*
G37*
%TO.C,R1*%
X134761724Y-79770500D02*
X134252276Y-79770500D01*
X134761724Y-78725500D02*
X134252276Y-78725500D01*
%TO.C,R2*%
X134761724Y-75960500D02*
X134252276Y-75960500D01*
X134761724Y-74915500D02*
X134252276Y-74915500D01*
%TO.C,Power*%
X133682000Y-82222000D02*
X132432000Y-82222000D01*
X132072000Y-82522000D02*
X132072000Y-83132000D01*
X130772000Y-82522000D02*
X130772000Y-83132000D01*
X132772000Y-83132000D02*
X129272000Y-83132000D01*
X129272000Y-83132000D02*
X129272000Y-88032000D01*
X133682000Y-83472000D02*
X133682000Y-82222000D01*
X133582000Y-83982000D02*
X133382000Y-83982000D01*
X133582000Y-84282000D02*
X133582000Y-83982000D01*
X133482000Y-84282000D02*
X133482000Y-83982000D01*
X133382000Y-84282000D02*
X133582000Y-84282000D01*
X133382000Y-85082000D02*
X132772000Y-85082000D01*
X132772000Y-85082000D02*
X132772000Y-83132000D01*
X129772000Y-85482000D02*
X129772000Y-85682000D01*
X129272000Y-85482000D02*
X129772000Y-85482000D01*
X129272000Y-85582000D02*
X129772000Y-85582000D01*
X129772000Y-85682000D02*
X129272000Y-85682000D01*
X132772000Y-86082000D02*
X133382000Y-86082000D01*
X132772000Y-88032000D02*
X132772000Y-86082000D01*
X129272000Y-88032000D02*
X132772000Y-88032000D01*
X132072000Y-88642000D02*
X132072000Y-88032000D01*
X130772000Y-88642000D02*
X130772000Y-88032000D01*
X133382000Y-82522000D02*
X128662000Y-82522000D01*
X128662000Y-88642000D01*
X133382000Y-88642000D01*
X133382000Y-82522000D01*
%TO.C,C2*%
X136650000Y-76600267D02*
X136650000Y-76307733D01*
X137670000Y-76600267D02*
X137670000Y-76307733D01*
%TO.C,R3*%
X140447500Y-84225224D02*
X140447500Y-83715776D01*
X141492500Y-84225224D02*
X141492500Y-83715776D01*
%TO.C,3.3*%
X133707000Y-77951000D02*
X136167000Y-77951000D01*
X136167000Y-76481000D02*
X133707000Y-76481000D01*
X136167000Y-77951000D02*
X136167000Y-76481000D01*
%TO.C,C3*%
X138682000Y-83837733D02*
X138682000Y-84130267D01*
X139702000Y-83837733D02*
X139702000Y-84130267D01*
%TO.C,5*%
X133707000Y-81761000D02*
X136167000Y-81761000D01*
X136167000Y-80291000D02*
X133707000Y-80291000D01*
X136167000Y-81761000D02*
X136167000Y-80291000D01*
%TO.C,C1*%
X136650000Y-80117733D02*
X136650000Y-80410267D01*
X137670000Y-80117733D02*
X137670000Y-80410267D01*
D12*
%TO.C,ADS1220*%
X136665000Y-68874000D02*
X140195000Y-68874000D01*
X140195000Y-73874000D02*
X136665000Y-73874000D01*
D13*
X134340000Y-69099000D02*
G75*
G02*
X134140000Y-69099000I-100000J0D01*
G01*
X134140000Y-69099000D02*
G75*
G02*
X134340000Y-69099000I100000J0D01*
G01*
D11*
%TO.C,D1*%
X138222000Y-78614000D02*
X138222000Y-81914000D01*
X138222000Y-78614000D02*
X143732000Y-78614000D01*
X138222000Y-81914000D02*
X143732000Y-81914000D01*
%TO.C,D2*%
X138254000Y-74804000D02*
X138254000Y-78104000D01*
X138254000Y-74804000D02*
X143764000Y-74804000D01*
X138254000Y-78104000D02*
X143764000Y-78104000D01*
%TO.C,R4*%
X145527500Y-84178224D02*
X145527500Y-83668776D01*
X146572500Y-84178224D02*
X146572500Y-83668776D01*
%TO.C,C4*%
X143762000Y-83774233D02*
X143762000Y-84066767D01*
X144782000Y-83774233D02*
X144782000Y-84066767D01*
%TD*%
M02*
