M48
; DRILL file {KiCad 9.0.7} date 2026-05-29T16:06:58-0500
; FORMAT={-:-/ absolute / inch / decimal}
; #@! TF.CreationDate,2026-05-29T16:06:58-05:00
; #@! TF.GenerationSoftware,Kicad,Pcbnew,9.0.7
; #@! TF.FileFunction,MixedPlating,1,2
FMAT,2
INCH
; #@! TA.AperFunction,Plated,PTH,ViaDrill
T1C0.0150
; #@! TA.AperFunction,Plated,PTH,ComponentDrill
T2C0.0394
; #@! TA.AperFunction,Plated,PTH,ComponentDrill
T3C0.0433
%
G90
G05
T1
X5.32Y-2.9196
X5.32Y-3.08
X5.41Y-2.7371
X5.41Y-2.805
X5.4313Y-2.96
X5.4335Y-3.1174
X5.49Y-2.805
X5.54Y-3.275
X5.7Y-3.226
X5.7Y-3.294
T2
X5.2Y-2.71
X5.2Y-2.81
X5.2Y-2.91
X5.2Y-3.01
X5.7Y-2.71
X5.7Y-2.81
X5.7Y-2.91
X5.7Y-3.01
X5.7Y-3.11
T3
X5.29Y-3.3548
X5.39Y-3.3548
X5.49Y-3.3548
X5.59Y-3.3548
M30
