%TF.GenerationSoftware,KiCad,Pcbnew,9.0.7*%
%TF.CreationDate,2026-04-16T11:45:54-05:00*%
%TF.ProjectId,HAND_Project_ADS1220_Amplifier,48414e44-5f50-4726-9f6a-6563745f4144,rev?*%
%TF.SameCoordinates,Original*%
%TF.FileFunction,Copper,L2,Bot*%
%TF.FilePolarity,Positive*%
%FSLAX46Y46*%
G04 Gerber Fmt 4.6, Leading zero omitted, Abs format (unit mm)*
G04 Created by KiCad (PCBNEW 9.0.7) date 2026-04-16 11:45:54*
%MOMM*%
%LPD*%
G01*
G04 APERTURE LIST*
G04 Aperture macros list*
%AMRoundRect*
0 Rectangle with rounded corners*
0 $1 Rounding radius*
0 $2 $3 $4 $5 $6 $7 $8 $9 X,Y pos of 4 corners*
0 Add a 4 corners polygon primitive as box body*
4,1,4,$2,$3,$4,$5,$6,$7,$8,$9,$2,$3,0*
0 Add four circle primitives for the rounded corners*
1,1,$1+$1,$2,$3*
1,1,$1+$1,$4,$5*
1,1,$1+$1,$6,$7*
1,1,$1+$1,$8,$9*
0 Add four rect primitives between the rounded corners*
20,1,$1+$1,$2,$3,$4,$5,0*
20,1,$1+$1,$4,$5,$6,$7,0*
20,1,$1+$1,$6,$7,$8,$9,0*
20,1,$1+$1,$8,$9,$2,$3,0*%
G04 Aperture macros list end*
%TA.AperFunction,ComponentPad*%
%ADD10RoundRect,0.250000X-1.050000X-1.050000X1.050000X-1.050000X1.050000X1.050000X-1.050000X1.050000X0*%
%TD*%
%TA.AperFunction,ComponentPad*%
%ADD11C,2.600000*%
%TD*%
%TA.AperFunction,ComponentPad*%
%ADD12RoundRect,0.250000X-0.625000X0.350000X-0.625000X-0.350000X0.625000X-0.350000X0.625000X0.350000X0*%
%TD*%
%TA.AperFunction,ComponentPad*%
%ADD13O,1.750000X1.200000*%
%TD*%
%TA.AperFunction,ComponentPad*%
%ADD14R,1.700000X1.700000*%
%TD*%
%TA.AperFunction,ComponentPad*%
%ADD15C,1.700000*%
%TD*%
%TA.AperFunction,ViaPad*%
%ADD16C,0.762000*%
%TD*%
%TA.AperFunction,Conductor*%
%ADD17C,0.254000*%
%TD*%
G04 APERTURE END LIST*
D10*
%TO.P,Strain Gauge Connector,1,Pin_1*%
%TO.N,GND*%
X131050000Y-96266000D03*
D11*
%TO.P,Strain Gauge Connector,2,Pin_2*%
%TO.N,5V*%
X136050000Y-96266000D03*
%TO.P,Strain Gauge Connector,3,Pin_3*%
%TO.N,Net-(J1-Pin_3)*%
X141050000Y-96266000D03*
%TO.P,Strain Gauge Connector,4,Pin_4*%
%TO.N,Net-(J1-Pin_4)*%
X146050000Y-96266000D03*
%TD*%
D12*
%TO.P,Power,1,Pin_1*%
%TO.N,5V*%
X131572000Y-84582000D03*
D13*
%TO.P,Power,2,Pin_2*%
%TO.N,GND*%
X131572000Y-86582000D03*
%TD*%
D14*
%TO.P,J7,1,Pin_1*%
%TO.N,/SCLK*%
X129540000Y-70114000D03*
D15*
%TO.P,J7,2,Pin_2*%
%TO.N,/CS*%
X129540000Y-72654000D03*
%TO.P,J7,3,Pin_3*%
%TO.N,/CLK*%
X129540000Y-75194000D03*
%TO.P,J7,4,Pin_4*%
%TO.N,GND*%
X129540000Y-77734000D03*
%TD*%
D14*
%TO.P,J2,1,Pin_1*%
%TO.N,/DIN*%
X147320000Y-70104000D03*
D15*
%TO.P,J2,2,Pin_2*%
%TO.N,/DOUT*%
X147320000Y-72644000D03*
%TO.P,J2,3,Pin_3*%
%TO.N,/DRDY*%
X147320000Y-75184000D03*
%TO.P,J2,4,Pin_4*%
%TO.N,5V*%
X147320000Y-77724000D03*
%TO.P,J2,5,Pin_5*%
%TO.N,3.3V*%
X147320000Y-80264000D03*
%TD*%
D16*
%TO.N,/DVDD*%
X143002000Y-72136000D03*
%TO.N,/AIN0*%
X139192000Y-83121500D03*
%TO.N,/DVDD*%
X139938760Y-80264000D03*
%TO.N,/AIN3*%
X144272000Y-83058000D03*
%TO.N,/AIN0*%
X140076232Y-72385416D03*
%TO.N,/AIN3*%
X137287000Y-72390000D03*
%TD*%
D17*
%TO.N,/AIN0*%
X139192000Y-73269648D02*
X139192000Y-83121500D01*
X140076232Y-72385416D02*
X139192000Y-73269648D01*
%TO.N,/DVDD*%
X143002000Y-77200760D02*
X143002000Y-72136000D01*
X139938760Y-80264000D02*
X143002000Y-77200760D01*
%TO.N,/AIN3*%
X137287000Y-82273993D02*
X137287000Y-72390000D01*
X143460740Y-83869260D02*
X138882267Y-83869260D01*
X138882267Y-83869260D02*
X137287000Y-82273993D01*
X144272000Y-83058000D02*
X143460740Y-83869260D01*
%TD*%
%TA.AperFunction,Conductor*%
%TO.N,GND*%
G36*
X149874962Y-65290185D02*
G01*
X149920717Y-65342989D01*
X149930661Y-65412147D01*
X149901636Y-65475703D01*
X149883412Y-65492873D01*
X149788641Y-65565594D01*
X149675992Y-65652033D01*
X149472033Y-65855992D01*
X149296423Y-66084850D01*
X149152200Y-66334653D01*
X149152196Y-66334663D01*
X149041813Y-66601151D01*
X148967153Y-66879786D01*
X148929504Y-67165761D01*
X148929503Y-67165778D01*
X148929503Y-67454221D01*
X148929504Y-67454238D01*
X148967153Y-67740213D01*
X149041813Y-68018848D01*
X149152196Y-68285336D01*
X149152200Y-68285346D01*
X149296423Y-68535149D01*
X149296427Y-68535154D01*
X149472027Y-68764000D01*
X149472033Y-68764007D01*
X149675992Y-68967966D01*
X149675996Y-68967969D01*
X149675998Y-68967971D01*
X149745981Y-69021671D01*
X149904850Y-69143576D01*
X150154653Y-69287799D01*
X150154654Y-69287799D01*
X150154657Y-69287801D01*
X150421156Y-69398188D01*
X150699783Y-69472846D01*
X150985772Y-69510497D01*
X150985779Y-69510497D01*
X151274221Y-69510497D01*
X151274228Y-69510497D01*
X151560217Y-69472846D01*
X151838844Y-69398188D01*
X152105343Y-69287801D01*
X152355154Y-69143573D01*
X152584002Y-68967971D01*
X152787971Y-68764002D01*
X152947125Y-68556589D01*
X153003552Y-68515387D01*
X153073298Y-68511232D01*
X153134218Y-68545444D01*
X153166971Y-68607161D01*
X153169500Y-68632076D01*
X153169500Y-99007923D01*
X153149815Y-99074962D01*
X153097011Y-99120717D01*
X153027853Y-99130661D01*
X152964297Y-99101636D01*
X152947126Y-99083412D01*
X152787971Y-98875998D01*
X152787969Y-98875996D01*
X152787966Y-98875992D01*
X152584007Y-98672033D01*
X152355149Y-98496423D01*
X152105346Y-98352200D01*
X152105336Y-98352196D01*
X151838848Y-98241813D01*
X151560213Y-98167153D01*
X151274238Y-98129504D01*
X151274233Y-98129503D01*
X151274228Y-98129503D01*
X150985772Y-98129503D01*
X150985766Y-98129503D01*
X150985761Y-98129504D01*
X150699786Y-98167153D01*
X150421151Y-98241813D01*
X150154663Y-98352196D01*
X150154653Y-98352200D01*
X149904850Y-98496423D01*
X149675992Y-98672033D01*
X149472033Y-98875992D01*
X149296423Y-99104850D01*
X149152200Y-99354653D01*
X149152196Y-99354663D01*
X149041813Y-99621151D01*
X148967153Y-99899786D01*
X148929504Y-100185761D01*
X148929503Y-100185778D01*
X148929503Y-100474221D01*
X148929504Y-100474238D01*
X148967153Y-100760213D01*
X149041813Y-101038848D01*
X149152196Y-101305336D01*
X149152200Y-101305346D01*
X149296423Y-101555149D01*
X149296427Y-101555154D01*
X149472027Y-101784000D01*
X149472033Y-101784007D01*
X149675992Y-101987966D01*
X149675996Y-101987969D01*
X149675998Y-101987971D01*
X149883410Y-102147125D01*
X149924612Y-102203552D01*
X149928767Y-102273298D01*
X149894555Y-102334219D01*
X149832837Y-102366971D01*
X149807923Y-102369500D01*
X127052077Y-102369500D01*
X126985038Y-102349815D01*
X126939283Y-102297011D01*
X126929339Y-102227853D01*
X126958364Y-102164297D01*
X126976587Y-102147126D01*
X127184002Y-101987971D01*
X127387971Y-101784002D01*
X127563573Y-101555154D01*
X127574986Y-101535387D01*
X127707799Y-101305346D01*
X127707801Y-101305343D01*
X127818188Y-101038844D01*
X127892846Y-100760217D01*
X127930497Y-100474228D01*
X127930497Y-100185772D01*
X127892846Y-99899783D01*
X127818188Y-99621156D01*
X127707801Y-99354657D01*
X127680437Y-99307261D01*
X127563576Y-99104850D01*
X127555676Y-99094555D01*
X127387971Y-98875998D01*
X127387969Y-98875996D01*
X127387966Y-98875992D01*
X127184007Y-98672033D01*
X126955149Y-98496423D01*
X126705346Y-98352200D01*
X126705336Y-98352196D01*
X126438848Y-98241813D01*
X126160213Y-98167153D01*
X125874238Y-98129504D01*
X125874233Y-98129503D01*
X125874228Y-98129503D01*
X125585772Y-98129503D01*
X125585766Y-98129503D01*
X125585761Y-98129504D01*
X125299786Y-98167153D01*
X125021151Y-98241813D01*
X124754663Y-98352196D01*
X124754653Y-98352200D01*
X124504850Y-98496423D01*
X124275992Y-98672033D01*
X124072033Y-98875992D01*
X123985594Y-98988641D01*
X123912874Y-99083410D01*
X123856448Y-99124612D01*
X123786702Y-99128767D01*
X123725781Y-99094555D01*
X123693029Y-99032837D01*
X123690500Y-99007923D01*
X123690500Y-95166013D01*
X129250000Y-95166013D01*
X129250000Y-96016000D01*
X130449999Y-96016000D01*
X130424979Y-96076402D01*
X130400000Y-96201981D01*
X130400000Y-96330019D01*
X130424979Y-96455598D01*
X130449999Y-96516000D01*
X129250001Y-96516000D01*
X129250001Y-97365986D01*
X129260494Y-97468697D01*
X129315641Y-97635119D01*
X129315643Y-97635124D01*
X129407684Y-97784345D01*
X129531654Y-97908315D01*
X129680875Y-98000356D01*
X129680880Y-98000358D01*
X129847302Y-98055505D01*
X129847309Y-98055506D01*
X129950019Y-98065999D01*
X130799999Y-98065999D01*
X130800000Y-98065998D01*
X130800000Y-96866001D01*
X130860402Y-96891021D01*
X130985981Y-96916000D01*
X131114019Y-96916000D01*
X131239598Y-96891021D01*
X131300000Y-96866001D01*
X131300000Y-98065999D01*
X132149972Y-98065999D01*
X132149986Y-98065998D01*
X132252697Y-98055505D01*
X132419119Y-98000358D01*
X132419124Y-98000356D01*
X132568345Y-97908315D01*
X132692315Y-97784345D01*
X132784356Y-97635124D01*
X132784358Y-97635119D01*
X132839505Y-97468697D01*
X132839506Y-97468690D01*
X132849999Y-97365986D01*
X132850000Y-97365973D01*
X132850000Y-96516000D01*
X131650001Y-96516000D01*
X131675021Y-96455598D01*
X131700000Y-96330019D01*
X131700000Y-96201981D01*
X131689262Y-96147995D01*
X134249500Y-96147995D01*
X134249500Y-96384004D01*
X134249501Y-96384020D01*
X134280306Y-96618010D01*
X134341394Y-96845993D01*
X134431714Y-97064045D01*
X134431719Y-97064056D01*
X134502677Y-97186957D01*
X134549727Y-97268450D01*
X134549729Y-97268453D01*
X134549730Y-97268454D01*
X134693406Y-97455697D01*
X134693412Y-97455704D01*
X134860295Y-97622587D01*
X134860302Y-97622593D01*
X134876633Y-97635124D01*
X135047550Y-97766273D01*
X135178918Y-97842118D01*
X135251943Y-97884280D01*
X135251948Y-97884282D01*
X135251951Y-97884284D01*
X135470007Y-97974606D01*
X135697986Y-98035693D01*
X135931989Y-98066500D01*
X135931996Y-98066500D01*
X136168004Y-98066500D01*
X136168011Y-98066500D01*
X136402014Y-98035693D01*
X136629993Y-97974606D01*
X136848049Y-97884284D01*
X137052450Y-97766273D01*
X137239699Y-97622592D01*
X137406592Y-97455699D01*
X137550273Y-97268450D01*
X137668284Y-97064049D01*
X137758606Y-96845993D01*
X137819693Y-96618014D01*
X137850500Y-96384011D01*
X137850500Y-96147995D01*
X139249500Y-96147995D01*
X139249500Y-96384004D01*
X139249501Y-96384020D01*
X139280306Y-96618010D01*
X139341394Y-96845993D01*
X139431714Y-97064045D01*
X139431719Y-97064056D01*
X139502677Y-97186957D01*
X139549727Y-97268450D01*
X139549729Y-97268453D01*
X139549730Y-97268454D01*
X139693406Y-97455697D01*
X139693412Y-97455704D01*
X139860295Y-97622587D01*
X139860302Y-97622593D01*
X139876633Y-97635124D01*
X140047550Y-97766273D01*
X140178918Y-97842118D01*
X140251943Y-97884280D01*
X140251948Y-97884282D01*
X140251951Y-97884284D01*
X140470007Y-97974606D01*
X140697986Y-98035693D01*
X140931989Y-98066500D01*
X140931996Y-98066500D01*
X141168004Y-98066500D01*
X141168011Y-98066500D01*
X141402014Y-98035693D01*
X141629993Y-97974606D01*
X141848049Y-97884284D01*
X142052450Y-97766273D01*
X142239699Y-97622592D01*
X142406592Y-97455699D01*
X142550273Y-97268450D01*
X142668284Y-97064049D01*
X142758606Y-96845993D01*
X142819693Y-96618014D01*
X142850500Y-96384011D01*
X142850500Y-96147995D01*
X144249500Y-96147995D01*
X144249500Y-96384004D01*
X144249501Y-96384020D01*
X144280306Y-96618010D01*
X144341394Y-96845993D01*
X144431714Y-97064045D01*
X144431719Y-97064056D01*
X144502677Y-97186957D01*
X144549727Y-97268450D01*
X144549729Y-97268453D01*
X144549730Y-97268454D01*
X144693406Y-97455697D01*
X144693412Y-97455704D01*
X144860295Y-97622587D01*
X144860302Y-97622593D01*
X144876633Y-97635124D01*
X145047550Y-97766273D01*
X145178918Y-97842118D01*
X145251943Y-97884280D01*
X145251948Y-97884282D01*
X145251951Y-97884284D01*
X145470007Y-97974606D01*
X145697986Y-98035693D01*
X145931989Y-98066500D01*
X145931996Y-98066500D01*
X146168004Y-98066500D01*
X146168011Y-98066500D01*
X146402014Y-98035693D01*
X146629993Y-97974606D01*
X146848049Y-97884284D01*
X147052450Y-97766273D01*
X147239699Y-97622592D01*
X147406592Y-97455699D01*
X147550273Y-97268450D01*
X147668284Y-97064049D01*
X147758606Y-96845993D01*
X147819693Y-96618014D01*
X147850500Y-96384011D01*
X147850500Y-96147989D01*
X147819693Y-95913986D01*
X147758606Y-95686007D01*
X147668284Y-95467951D01*
X147668282Y-95467948D01*
X147668280Y-95467943D01*
X147626118Y-95394918D01*
X147550273Y-95263550D01*
X147406592Y-95076301D01*
X147406587Y-95076295D01*
X147239704Y-94909412D01*
X147239697Y-94909406D01*
X147052454Y-94765730D01*
X147052453Y-94765729D01*
X147052450Y-94765727D01*
X146970957Y-94718677D01*
X146848056Y-94647719D01*
X146848045Y-94647714D01*
X146629993Y-94557394D01*
X146402010Y-94496306D01*
X146168020Y-94465501D01*
X146168017Y-94465500D01*
X146168011Y-94465500D01*
X145931989Y-94465500D01*
X145931983Y-94465500D01*
X145931979Y-94465501D01*
X145697989Y-94496306D01*
X145470006Y-94557394D01*
X145251954Y-94647714D01*
X145251943Y-94647719D01*
X145047545Y-94765730D01*
X144860302Y-94909406D01*
X144860295Y-94909412D01*
X144693412Y-95076295D01*
X144693406Y-95076302D01*
X144549730Y-95263545D01*
X144431719Y-95467943D01*
X144431714Y-95467954D01*
X144341394Y-95686006D01*
X144280306Y-95913989D01*
X144249501Y-96147979D01*
X144249500Y-96147995D01*
X142850500Y-96147995D01*
X142850500Y-96147989D01*
X142819693Y-95913986D01*
X142758606Y-95686007D01*
X142668284Y-95467951D01*
X142668282Y-95467948D01*
X142668280Y-95467943D01*
X142626118Y-95394918D01*
X142550273Y-95263550D01*
X142406592Y-95076301D01*
X142406587Y-95076295D01*
X142239704Y-94909412D01*
X142239697Y-94909406D01*
X142052454Y-94765730D01*
X142052453Y-94765729D01*
X142052450Y-94765727D01*
X141970957Y-94718677D01*
X141848056Y-94647719D01*
X141848045Y-94647714D01*
X141629993Y-94557394D01*
X141402010Y-94496306D01*
X141168020Y-94465501D01*
X141168017Y-94465500D01*
X141168011Y-94465500D01*
X140931989Y-94465500D01*
X140931983Y-94465500D01*
X140931979Y-94465501D01*
X140697989Y-94496306D01*
X140470006Y-94557394D01*
X140251954Y-94647714D01*
X140251943Y-94647719D01*
X140047545Y-94765730D01*
X139860302Y-94909406D01*
X139860295Y-94909412D01*
X139693412Y-95076295D01*
X139693406Y-95076302D01*
X139549730Y-95263545D01*
X139431719Y-95467943D01*
X139431714Y-95467954D01*
X139341394Y-95686006D01*
X139280306Y-95913989D01*
X139249501Y-96147979D01*
X139249500Y-96147995D01*
X137850500Y-96147995D01*
X137850500Y-96147989D01*
X137819693Y-95913986D01*
X137758606Y-95686007D01*
X137668284Y-95467951D01*
X137668282Y-95467948D01*
X137668280Y-95467943D01*
X137626118Y-95394918D01*
X137550273Y-95263550D01*
X137406592Y-95076301D01*
X137406587Y-95076295D01*
X137239704Y-94909412D01*
X137239697Y-94909406D01*
X137052454Y-94765730D01*
X137052453Y-94765729D01*
X137052450Y-94765727D01*
X136970957Y-94718677D01*
X136848056Y-94647719D01*
X136848045Y-94647714D01*
X136629993Y-94557394D01*
X136402010Y-94496306D01*
X136168020Y-94465501D01*
X136168017Y-94465500D01*
X136168011Y-94465500D01*
X135931989Y-94465500D01*
X135931983Y-94465500D01*
X135931979Y-94465501D01*
X135697989Y-94496306D01*
X135470006Y-94557394D01*
X135251954Y-94647714D01*
X135251943Y-94647719D01*
X135047545Y-94765730D01*
X134860302Y-94909406D01*
X134860295Y-94909412D01*
X134693412Y-95076295D01*
X134693406Y-95076302D01*
X134549730Y-95263545D01*
X134431719Y-95467943D01*
X134431714Y-95467954D01*
X134341394Y-95686006D01*
X134280306Y-95913989D01*
X134249501Y-96147979D01*
X134249500Y-96147995D01*
X131689262Y-96147995D01*
X131675021Y-96076402D01*
X131650001Y-96016000D01*
X132849999Y-96016000D01*
X132849999Y-95166028D01*
X132849998Y-95166013D01*
X132839505Y-95063302D01*
X132784358Y-94896880D01*
X132784356Y-94896875D01*
X132692315Y-94747654D01*
X132568345Y-94623684D01*
X132419124Y-94531643D01*
X132419119Y-94531641D01*
X132252697Y-94476494D01*
X132252690Y-94476493D01*
X132149986Y-94466000D01*
X131300000Y-94466000D01*
X131300000Y-95665998D01*
X131239598Y-95640979D01*
X131114019Y-95616000D01*
X130985981Y-95616000D01*
X130860402Y-95640979D01*
X130800000Y-95665998D01*
X130800000Y-94466000D01*
X129950028Y-94466000D01*
X129950012Y-94466001D01*
X129847302Y-94476494D01*
X129680880Y-94531641D01*
X129680875Y-94531643D01*
X129531654Y-94623684D01*
X129407684Y-94747654D01*
X129315643Y-94896875D01*
X129315641Y-94896880D01*
X129260494Y-95063302D01*
X129260493Y-95063309D01*
X129250000Y-95166013D01*
X123690500Y-95166013D01*
X123690500Y-84181983D01*
X130196500Y-84181983D01*
X130196500Y-84982001D01*
X130196501Y-84982019D01*
X130207000Y-85084796D01*
X130207001Y-85084799D01*
X130262185Y-85251331D01*
X130262186Y-85251334D01*
X130354288Y-85400656D01*
X130478344Y-85524712D01*
X130542981Y-85564580D01*
X130589705Y-85616526D01*
X130600928Y-85685489D01*
X130573085Y-85749571D01*
X130565566Y-85757799D01*
X130457964Y-85865401D01*
X130356195Y-86005475D01*
X130277591Y-86159744D01*
X130224085Y-86324415D01*
X130222884Y-86331999D01*
X130222885Y-86332000D01*
X131291670Y-86332000D01*
X131271925Y-86351745D01*
X131222556Y-86437255D01*
X131197000Y-86532630D01*
X131197000Y-86631370D01*
X131222556Y-86726745D01*
X131271925Y-86812255D01*
X131291670Y-86832000D01*
X130222885Y-86832000D01*
X130224085Y-86839584D01*
X130277591Y-87004255D01*
X130356195Y-87158524D01*
X130457967Y-87298602D01*
X130580397Y-87421032D01*
X130720475Y-87522804D01*
X130874742Y-87601408D01*
X131039415Y-87654914D01*
X131210429Y-87682000D01*
X131322000Y-87682000D01*
X131322000Y-86862330D01*
X131341745Y-86882075D01*
X131427255Y-86931444D01*
X131522630Y-86957000D01*
X131621370Y-86957000D01*
X131716745Y-86931444D01*
X131802255Y-86882075D01*
X131822000Y-86862330D01*
X131822000Y-87682000D01*
X131933571Y-87682000D01*
X132104584Y-87654914D01*
X132269257Y-87601408D01*
X132423524Y-87522804D01*
X132563602Y-87421032D01*
X132686032Y-87298602D01*
X132787804Y-87158524D01*
X132866408Y-87004255D01*
X132919914Y-86839584D01*
X132921115Y-86832000D01*
X131852330Y-86832000D01*
X131872075Y-86812255D01*
X131921444Y-86726745D01*
X131947000Y-86631370D01*
X131947000Y-86532630D01*
X131921444Y-86437255D01*
X131872075Y-86351745D01*
X131852330Y-86332000D01*
X132921115Y-86332000D01*
X132921115Y-86331999D01*
X132919914Y-86324415D01*
X132866408Y-86159744D01*
X132787804Y-86005475D01*
X132686032Y-85865397D01*
X132578434Y-85757799D01*
X132544949Y-85696476D01*
X132549933Y-85626784D01*
X132591805Y-85570851D01*
X132600995Y-85564594D01*
X132665656Y-85524712D01*
X132789712Y-85400656D01*
X132881814Y-85251334D01*
X132936999Y-85084797D01*
X132947500Y-84982009D01*
X132947499Y-84181992D01*
X132936999Y-84079203D01*
X132881814Y-83912666D01*
X132789712Y-83763344D01*
X132665656Y-83639288D01*
X132516334Y-83547186D01*
X132349797Y-83492001D01*
X132349795Y-83492000D01*
X132247010Y-83481500D01*
X130896998Y-83481500D01*
X130896981Y-83481501D01*
X130794203Y-83492000D01*
X130794200Y-83492001D01*
X130627668Y-83547185D01*
X130627663Y-83547187D01*
X130478342Y-83639289D01*
X130354289Y-83763342D01*
X130262187Y-83912663D01*
X130262186Y-83912666D01*
X130207001Y-84079203D01*
X130207001Y-84079204D01*
X130207000Y-84079204D01*
X130196500Y-84181983D01*
X123690500Y-84181983D01*
X123690500Y-68632076D01*
X123710185Y-68565037D01*
X123762989Y-68519282D01*
X123832147Y-68509338D01*
X123895703Y-68538363D01*
X123912873Y-68556587D01*
X123951680Y-68607161D01*
X124072027Y-68764000D01*
X124072033Y-68764007D01*
X124275992Y-68967966D01*
X124275996Y-68967969D01*
X124275998Y-68967971D01*
X124345981Y-69021671D01*
X124504850Y-69143576D01*
X124754653Y-69287799D01*
X124754654Y-69287799D01*
X124754657Y-69287801D01*
X125021156Y-69398188D01*
X125299783Y-69472846D01*
X125585772Y-69510497D01*
X125585779Y-69510497D01*
X125874221Y-69510497D01*
X125874228Y-69510497D01*
X126160217Y-69472846D01*
X126438844Y-69398188D01*
X126705343Y-69287801D01*
X126829473Y-69216135D01*
X128189500Y-69216135D01*
X128189500Y-71011870D01*
X128189501Y-71011876D01*
X128195908Y-71071483D01*
X128246202Y-71206328D01*
X128246206Y-71206335D01*
X128332452Y-71321544D01*
X128332455Y-71321547D01*
X128447664Y-71407793D01*
X128447671Y-71407797D01*
X128579082Y-71456810D01*
X128635016Y-71498681D01*
X128659433Y-71564145D01*
X128644582Y-71632418D01*
X128623431Y-71660673D01*
X128509889Y-71774215D01*
X128384951Y-71946179D01*
X128288444Y-72135585D01*
X128222753Y-72337760D01*
X128189500Y-72547713D01*
X128189500Y-72760286D01*
X128221169Y-72960239D01*
X128222754Y-72970243D01*
X128286550Y-73166587D01*
X128288444Y-73172414D01*
X128384951Y-73361820D01*
X128509890Y-73533786D01*
X128660213Y-73684109D01*
X128832182Y-73809050D01*
X128840946Y-73813516D01*
X128891742Y-73861491D01*
X128908536Y-73929312D01*
X128885998Y-73995447D01*
X128840946Y-74034484D01*
X128832182Y-74038949D01*
X128660213Y-74163890D01*
X128509890Y-74314213D01*
X128384951Y-74486179D01*
X128288444Y-74675585D01*
X128222753Y-74877760D01*
X128189500Y-75087713D01*
X128189500Y-75300286D01*
X128221169Y-75500239D01*
X128222754Y-75510243D01*
X128285194Y-75702414D01*
X128288444Y-75712414D01*
X128384951Y-75901820D01*
X128509890Y-76073786D01*
X128660213Y-76224109D01*
X128832179Y-76349048D01*
X128832181Y-76349049D01*
X128832184Y-76349051D01*
X128841493Y-76353794D01*
X128892290Y-76401766D01*
X128909087Y-76469587D01*
X128886552Y-76535722D01*
X128841505Y-76574760D01*
X128832446Y-76579376D01*
X128832440Y-76579380D01*
X128778282Y-76618727D01*
X128778282Y-76618728D01*
X129410591Y-77251037D01*
X129347007Y-77268075D01*
X129232993Y-77333901D01*
X129139901Y-77426993D01*
X129074075Y-77541007D01*
X129057037Y-77604591D01*
X128424728Y-76972282D01*
X128424727Y-76972282D01*
X128385380Y-77026439D01*
X128288904Y-77215782D01*
X128223242Y-77417869D01*
X128223242Y-77417872D01*
X128190000Y-77627753D01*
X128190000Y-77840246D01*
X128223242Y-78050127D01*
X128223242Y-78050130D01*
X128288904Y-78252217D01*
X128385375Y-78441550D01*
X128424728Y-78495716D01*
X129057037Y-77863408D01*
X129074075Y-77926993D01*
X129139901Y-78041007D01*
X129232993Y-78134099D01*
X129347007Y-78199925D01*
X129410590Y-78216962D01*
X128778282Y-78849269D01*
X128778282Y-78849270D01*
X128832449Y-78888624D01*
X129021782Y-78985095D01*
X129223870Y-79050757D01*
X129433754Y-79084000D01*
X129646246Y-79084000D01*
X129856127Y-79050757D01*
X129856130Y-79050757D01*
X130058217Y-78985095D01*
X130247554Y-78888622D01*
X130301716Y-78849270D01*
X130301717Y-78849270D01*
X129669408Y-78216962D01*
X129732993Y-78199925D01*
X129847007Y-78134099D01*
X129940099Y-78041007D01*
X130005925Y-77926993D01*
X130022962Y-77863408D01*
X130655270Y-78495717D01*
X130655270Y-78495716D01*
X130694622Y-78441554D01*
X130791095Y-78252217D01*
X130856757Y-78050130D01*
X130856757Y-78050127D01*
X130890000Y-77840246D01*
X130890000Y-77627753D01*
X130856757Y-77417872D01*
X130856757Y-77417869D01*
X130791095Y-77215782D01*
X130694624Y-77026449D01*
X130655270Y-76972282D01*
X130655269Y-76972282D01*
X130022962Y-77604590D01*
X130005925Y-77541007D01*
X129940099Y-77426993D01*
X129847007Y-77333901D01*
X129732993Y-77268075D01*
X129669409Y-77251037D01*
X130301716Y-76618728D01*
X130247547Y-76579373D01*
X130247547Y-76579372D01*
X130238500Y-76574763D01*
X130187706Y-76526788D01*
X130170912Y-76458966D01*
X130193451Y-76392832D01*
X130238508Y-76353793D01*
X130247816Y-76349051D01*
X130327007Y-76291515D01*
X130419786Y-76224109D01*
X130419788Y-76224106D01*
X130419792Y-76224104D01*
X130570104Y-76073792D01*
X130570106Y-76073788D01*
X130570109Y-76073786D01*
X130695048Y-75901820D01*
X130695047Y-75901820D01*
X130695051Y-75901816D01*
X130791557Y-75712412D01*
X130857246Y-75510243D01*
X130890500Y-75300287D01*
X130890500Y-75087713D01*
X130857246Y-74877757D01*
X130791557Y-74675588D01*
X130695051Y-74486184D01*
X130695049Y-74486181D01*
X130695048Y-74486179D01*
X130570109Y-74314213D01*
X130419786Y-74163890D01*
X130247820Y-74038951D01*
X130247115Y-74038591D01*
X130239054Y-74034485D01*
X130188259Y-73986512D01*
X130171463Y-73918692D01*
X130193999Y-73852556D01*
X130239054Y-73813515D01*
X130247816Y-73809051D01*
X130269789Y-73793086D01*
X130419786Y-73684109D01*
X130419788Y-73684106D01*
X130419792Y-73684104D01*
X130570104Y-73533792D01*
X130570106Y-73533788D01*
X130570109Y-73533786D01*
X130695048Y-73361820D01*
X130695047Y-73361820D01*
X130695051Y-73361816D01*
X130791557Y-73172412D01*
X130857246Y-72970243D01*
X130890500Y-72760287D01*
X130890500Y-72547713D01*
X130879272Y-72476822D01*
X136405499Y-72476822D01*
X136439374Y-72647118D01*
X136439377Y-72647128D01*
X136505821Y-72807540D01*
X136505828Y-72807553D01*
X136602292Y-72951921D01*
X136602293Y-72951922D01*
X136602294Y-72951923D01*
X136623181Y-72972810D01*
X136656666Y-73034130D01*
X136659500Y-73060491D01*
X136659500Y-82335800D01*
X136683612Y-82457020D01*
X136683615Y-82457032D01*
X136702208Y-82501918D01*
X136730915Y-82571222D01*
X136730917Y-82571226D01*
X136761845Y-82617513D01*
X136761846Y-82617514D01*
X136799590Y-82674003D01*
X136799591Y-82674004D01*
X138394856Y-84269268D01*
X138482259Y-84356671D01*
X138482260Y-84356672D01*
X138585027Y-84425339D01*
X138585040Y-84425346D01*
X138699227Y-84472643D01*
X138699232Y-84472645D01*
X138699236Y-84472645D01*
X138699237Y-84472646D01*
X138820461Y-84496760D01*
X138820464Y-84496760D01*
X143522544Y-84496760D01*
X143522545Y-84496759D01*
X143643775Y-84472646D01*
X143724524Y-84439197D01*
X143757973Y-84425343D01*
X143860748Y-84356671D01*
X143948151Y-84269268D01*
X144241600Y-83975819D01*
X144302923Y-83942334D01*
X144329281Y-83939500D01*
X144358822Y-83939500D01*
X144493737Y-83912663D01*
X144529124Y-83905624D01*
X144689547Y-83839175D01*
X144833923Y-83742706D01*
X144956706Y-83619923D01*
X145053175Y-83475547D01*
X145119624Y-83315124D01*
X145141442Y-83205441D01*
X145153500Y-83144822D01*
X145153500Y-82971177D01*
X145119625Y-82800881D01*
X145119624Y-82800880D01*
X145119624Y-82800876D01*
X145079480Y-82703959D01*
X145053178Y-82640459D01*
X145053171Y-82640446D01*
X144956706Y-82496077D01*
X144956703Y-82496073D01*
X144833926Y-82373296D01*
X144833922Y-82373293D01*
X144689553Y-82276828D01*
X144689540Y-82276821D01*
X144529128Y-82210377D01*
X144529118Y-82210374D01*
X144358822Y-82176500D01*
X144358820Y-82176500D01*
X144185180Y-82176500D01*
X144185178Y-82176500D01*
X144014881Y-82210374D01*
X144014871Y-82210377D01*
X143854459Y-82276821D01*
X143854446Y-82276828D01*
X143710077Y-82373293D01*
X143710073Y-82373296D01*
X143587296Y-82496073D01*
X143587293Y-82496077D01*
X143490828Y-82640446D01*
X143490821Y-82640459D01*
X143424377Y-82800871D01*
X143424374Y-82800881D01*
X143390500Y-82971177D01*
X143390500Y-83000719D01*
X143381855Y-83030159D01*
X143375332Y-83060146D01*
X143371577Y-83065161D01*
X143370815Y-83067758D01*
X143354181Y-83088400D01*
X143237140Y-83205441D01*
X143175817Y-83238926D01*
X143149459Y-83241760D01*
X140197500Y-83241760D01*
X140130461Y-83222075D01*
X140084706Y-83169271D01*
X140073500Y-83117760D01*
X140073500Y-83034677D01*
X140039625Y-82864381D01*
X140039624Y-82864380D01*
X140039624Y-82864376D01*
X140013320Y-82800871D01*
X139973178Y-82703959D01*
X139973171Y-82703946D01*
X139876706Y-82559577D01*
X139876703Y-82559573D01*
X139855819Y-82538689D01*
X139822334Y-82477366D01*
X139819500Y-82451008D01*
X139819500Y-81269500D01*
X139839185Y-81202461D01*
X139891989Y-81156706D01*
X139943500Y-81145500D01*
X140025582Y-81145500D01*
X140140154Y-81122709D01*
X140195884Y-81111624D01*
X140356307Y-81045175D01*
X140500683Y-80948706D01*
X140623466Y-80825923D01*
X140719935Y-80681547D01*
X140786384Y-80521124D01*
X140820260Y-80350820D01*
X140820260Y-80321281D01*
X140839945Y-80254242D01*
X140856579Y-80233600D01*
X143489408Y-77600771D01*
X143489411Y-77600768D01*
X143558083Y-77497993D01*
X143587492Y-77426993D01*
X143595460Y-77407758D01*
X143597708Y-77402328D01*
X143605386Y-77383794D01*
X143629500Y-77262563D01*
X143629500Y-77138956D01*
X143629500Y-72806491D01*
X143649185Y-72739452D01*
X143665815Y-72718813D01*
X143686706Y-72697923D01*
X143783175Y-72553547D01*
X143849624Y-72393124D01*
X143862626Y-72327760D01*
X143883500Y-72222822D01*
X143883500Y-72049177D01*
X143849625Y-71878881D01*
X143849624Y-71878880D01*
X143849624Y-71878876D01*
X143849622Y-71878871D01*
X143783178Y-71718459D01*
X143783171Y-71718446D01*
X143686706Y-71574077D01*
X143686703Y-71574073D01*
X143563926Y-71451296D01*
X143563922Y-71451293D01*
X143419553Y-71354828D01*
X143419540Y-71354821D01*
X143259128Y-71288377D01*
X143259118Y-71288374D01*
X143088822Y-71254500D01*
X143088820Y-71254500D01*
X142915180Y-71254500D01*
X142915178Y-71254500D01*
X142744881Y-71288374D01*
X142744871Y-71288377D01*
X142584459Y-71354821D01*
X142584446Y-71354828D01*
X142440077Y-71451293D01*
X142440073Y-71451296D01*
X142317296Y-71574073D01*
X142317293Y-71574077D01*
X142220828Y-71718446D01*
X142220821Y-71718459D01*
X142154377Y-71878871D01*
X142154374Y-71878881D01*
X142120500Y-72049177D01*
X142120500Y-72049180D01*
X142120500Y-72222820D01*
X142120500Y-72222822D01*
X142120499Y-72222822D01*
X142154374Y-72393118D01*
X142154377Y-72393128D01*
X142220821Y-72553540D01*
X142220828Y-72553553D01*
X142317292Y-72697921D01*
X142317293Y-72697922D01*
X142317294Y-72697923D01*
X142338181Y-72718810D01*
X142371666Y-72780130D01*
X142374500Y-72806491D01*
X142374500Y-76889479D01*
X142354815Y-76956518D01*
X142338181Y-76977160D01*
X140031181Y-79284160D01*
X139969858Y-79317645D01*
X139900166Y-79312661D01*
X139844233Y-79270789D01*
X139819816Y-79205325D01*
X139819500Y-79196479D01*
X139819500Y-73580929D01*
X139839185Y-73513890D01*
X139855819Y-73493248D01*
X140045832Y-73303235D01*
X140107155Y-73269750D01*
X140133513Y-73266916D01*
X140163054Y-73266916D01*
X140277626Y-73244125D01*
X140333356Y-73233040D01*
X140493779Y-73166591D01*
X140638155Y-73070122D01*
X140760938Y-72947339D01*
X140857407Y-72802963D01*
X140923856Y-72642540D01*
X140941558Y-72553547D01*
X140957732Y-72472238D01*
X140957732Y-72298593D01*
X140923857Y-72128297D01*
X140923856Y-72128296D01*
X140923856Y-72128292D01*
X140891086Y-72049177D01*
X140857410Y-71967875D01*
X140857403Y-71967862D01*
X140760938Y-71823493D01*
X140760935Y-71823489D01*
X140638158Y-71700712D01*
X140638154Y-71700709D01*
X140493785Y-71604244D01*
X140493772Y-71604237D01*
X140333360Y-71537793D01*
X140333350Y-71537790D01*
X140163054Y-71503916D01*
X140163052Y-71503916D01*
X139989412Y-71503916D01*
X139989410Y-71503916D01*
X139819113Y-71537790D01*
X139819103Y-71537793D01*
X139658691Y-71604237D01*
X139658678Y-71604244D01*
X139514309Y-71700709D01*
X139514305Y-71700712D01*
X139391528Y-71823489D01*
X139391525Y-71823493D01*
X139295060Y-71967862D01*
X139295053Y-71967875D01*
X139228609Y-72128287D01*
X139228606Y-72128297D01*
X139194732Y-72298593D01*
X139194732Y-72328135D01*
X139175047Y-72395174D01*
X139158413Y-72415816D01*
X138791992Y-72782237D01*
X138767738Y-72806491D01*
X138704586Y-72869642D01*
X138704585Y-72869644D01*
X138635734Y-72972687D01*
X138635482Y-72973464D01*
X138588614Y-73086613D01*
X138573537Y-73162412D01*
X138572129Y-73169488D01*
X138572128Y-73169493D01*
X138564500Y-73207843D01*
X138564500Y-82364712D01*
X138544815Y-82431751D01*
X138492011Y-82477506D01*
X138422853Y-82487450D01*
X138359297Y-82458425D01*
X138352819Y-82452393D01*
X137950819Y-82050393D01*
X137917334Y-81989070D01*
X137914500Y-81962712D01*
X137914500Y-73060491D01*
X137934185Y-72993452D01*
X137950815Y-72972813D01*
X137971706Y-72951923D01*
X138068175Y-72807547D01*
X138068613Y-72806491D01*
X138134622Y-72647128D01*
X138134624Y-72647124D01*
X138154398Y-72547713D01*
X138168500Y-72476822D01*
X138168500Y-72303177D01*
X138134625Y-72132881D01*
X138134624Y-72132880D01*
X138134624Y-72132876D01*
X138099955Y-72049177D01*
X138068178Y-71972459D01*
X138068171Y-71972446D01*
X137971706Y-71828077D01*
X137971703Y-71828073D01*
X137848926Y-71705296D01*
X137848922Y-71705293D01*
X137704553Y-71608828D01*
X137704540Y-71608821D01*
X137544128Y-71542377D01*
X137544118Y-71542374D01*
X137373822Y-71508500D01*
X137373820Y-71508500D01*
X137200180Y-71508500D01*
X137200178Y-71508500D01*
X137029881Y-71542374D01*
X137029871Y-71542377D01*
X136869459Y-71608821D01*
X136869446Y-71608828D01*
X136725077Y-71705293D01*
X136725073Y-71705296D01*
X136602296Y-71828073D01*
X136602293Y-71828077D01*
X136505828Y-71972446D01*
X136505821Y-71972459D01*
X136439377Y-72132871D01*
X136439374Y-72132881D01*
X136405500Y-72303177D01*
X136405500Y-72303180D01*
X136405500Y-72476820D01*
X136405500Y-72476822D01*
X136405499Y-72476822D01*
X130879272Y-72476822D01*
X130857246Y-72337757D01*
X130791557Y-72135588D01*
X130695051Y-71946184D01*
X130695049Y-71946181D01*
X130695048Y-71946179D01*
X130570109Y-71774213D01*
X130456569Y-71660673D01*
X130423084Y-71599350D01*
X130428068Y-71529658D01*
X130469940Y-71473725D01*
X130500915Y-71456810D01*
X130632331Y-71407796D01*
X130747546Y-71321546D01*
X130833796Y-71206331D01*
X130884091Y-71071483D01*
X130890500Y-71011873D01*
X130890499Y-69216128D01*
X130889424Y-69206135D01*
X145969500Y-69206135D01*
X145969500Y-71001870D01*
X145969501Y-71001876D01*
X145975908Y-71061483D01*
X146026202Y-71196328D01*
X146026206Y-71196335D01*
X146112452Y-71311544D01*
X146112455Y-71311547D01*
X146227664Y-71397793D01*
X146227671Y-71397797D01*
X146359082Y-71446810D01*
X146415016Y-71488681D01*
X146439433Y-71554145D01*
X146424582Y-71622418D01*
X146403431Y-71650673D01*
X146289889Y-71764215D01*
X146164951Y-71936179D01*
X146068444Y-72125585D01*
X146002753Y-72327760D01*
X145969500Y-72537713D01*
X145969500Y-72750286D01*
X146000710Y-72947342D01*
X146002754Y-72960243D01*
X146043814Y-73086613D01*
X146068444Y-73162414D01*
X146164951Y-73351820D01*
X146289890Y-73523786D01*
X146440213Y-73674109D01*
X146612182Y-73799050D01*
X146620946Y-73803516D01*
X146671742Y-73851491D01*
X146688536Y-73919312D01*
X146665998Y-73985447D01*
X146620946Y-74024484D01*
X146612182Y-74028949D01*
X146440213Y-74153890D01*
X146289890Y-74304213D01*
X146164951Y-74476179D01*
X146068444Y-74665585D01*
X146002753Y-74867760D01*
X145969500Y-75077713D01*
X145969500Y-75290287D01*
X146002754Y-75500243D01*
X146006003Y-75510243D01*
X146068444Y-75702414D01*
X146164951Y-75891820D01*
X146289890Y-76063786D01*
X146440213Y-76214109D01*
X146612182Y-76339050D01*
X146620946Y-76343516D01*
X146671742Y-76391491D01*
X146688536Y-76459312D01*
X146665998Y-76525447D01*
X146620946Y-76564484D01*
X146612182Y-76568949D01*
X146440213Y-76693890D01*
X146289890Y-76844213D01*
X146164951Y-77016179D01*
X146068444Y-77205585D01*
X146068443Y-77205587D01*
X146068443Y-77205588D01*
X146002754Y-77407757D01*
X145969500Y-77617713D01*
X145969500Y-77830287D01*
X146002754Y-78040243D01*
X146018126Y-78087554D01*
X146068444Y-78242414D01*
X146164951Y-78431820D01*
X146289890Y-78603786D01*
X146440213Y-78754109D01*
X146612182Y-78879050D01*
X146620946Y-78883516D01*
X146671742Y-78931491D01*
X146688536Y-78999312D01*
X146665998Y-79065447D01*
X146620946Y-79104484D01*
X146612182Y-79108949D01*
X146440213Y-79233890D01*
X146289890Y-79384213D01*
X146164951Y-79556179D01*
X146068444Y-79745585D01*
X146002753Y-79947760D01*
X145969500Y-80157713D01*
X145969500Y-80370286D01*
X146002753Y-80580239D01*
X146068444Y-80782414D01*
X146164951Y-80971820D01*
X146289890Y-81143786D01*
X146440213Y-81294109D01*
X146612179Y-81419048D01*
X146612181Y-81419049D01*
X146612184Y-81419051D01*
X146801588Y-81515557D01*
X147003757Y-81581246D01*
X147213713Y-81614500D01*
X147213714Y-81614500D01*
X147426286Y-81614500D01*
X147426287Y-81614500D01*
X147636243Y-81581246D01*
X147838412Y-81515557D01*
X148027816Y-81419051D01*
X148049789Y-81403086D01*
X148199786Y-81294109D01*
X148199788Y-81294106D01*
X148199792Y-81294104D01*
X148350104Y-81143792D01*
X148350106Y-81143788D01*
X148350109Y-81143786D01*
X148475048Y-80971820D01*
X148475047Y-80971820D01*
X148475051Y-80971816D01*
X148571557Y-80782412D01*
X148637246Y-80580243D01*
X148670500Y-80370287D01*
X148670500Y-80157713D01*
X148637246Y-79947757D01*
X148571557Y-79745588D01*
X148475051Y-79556184D01*
X148475049Y-79556181D01*
X148475048Y-79556179D01*
X148350109Y-79384213D01*
X148199786Y-79233890D01*
X148027820Y-79108951D01*
X148027115Y-79108591D01*
X148019054Y-79104485D01*
X147968259Y-79056512D01*
X147951463Y-78988692D01*
X147973999Y-78922556D01*
X148019054Y-78883515D01*
X148027816Y-78879051D01*
X148068808Y-78849269D01*
X148199786Y-78754109D01*
X148199788Y-78754106D01*
X148199792Y-78754104D01*
X148350104Y-78603792D01*
X148350106Y-78603788D01*
X148350109Y-78603786D01*
X148475048Y-78431820D01*
X148475047Y-78431820D01*
X148475051Y-78431816D01*
X148571557Y-78242412D01*
X148637246Y-78040243D01*
X148670500Y-77830287D01*
X148670500Y-77617713D01*
X148637246Y-77407757D01*
X148571557Y-77205588D01*
X148475051Y-77016184D01*
X148475049Y-77016181D01*
X148475048Y-77016179D01*
X148350109Y-76844213D01*
X148199786Y-76693890D01*
X148027820Y-76568951D01*
X148027115Y-76568591D01*
X148019054Y-76564485D01*
X147968259Y-76516512D01*
X147951463Y-76448692D01*
X147973999Y-76382556D01*
X148019054Y-76343515D01*
X148027816Y-76339051D01*
X148049789Y-76323086D01*
X148199786Y-76214109D01*
X148199788Y-76214106D01*
X148199792Y-76214104D01*
X148350104Y-76063792D01*
X148350106Y-76063788D01*
X148350109Y-76063786D01*
X148475048Y-75891820D01*
X148475047Y-75891820D01*
X148475051Y-75891816D01*
X148571557Y-75702412D01*
X148637246Y-75500243D01*
X148670500Y-75290287D01*
X148670500Y-75077713D01*
X148637246Y-74867757D01*
X148571557Y-74665588D01*
X148475051Y-74476184D01*
X148475049Y-74476181D01*
X148475048Y-74476179D01*
X148350109Y-74304213D01*
X148199786Y-74153890D01*
X148027820Y-74028951D01*
X148027115Y-74028591D01*
X148019054Y-74024485D01*
X147968259Y-73976512D01*
X147951463Y-73908692D01*
X147973999Y-73842556D01*
X148019054Y-73803515D01*
X148027816Y-73799051D01*
X148049789Y-73783086D01*
X148199786Y-73674109D01*
X148199788Y-73674106D01*
X148199792Y-73674104D01*
X148350104Y-73523792D01*
X148350106Y-73523788D01*
X148350109Y-73523786D01*
X148475048Y-73351820D01*
X148475047Y-73351820D01*
X148475051Y-73351816D01*
X148571557Y-73162412D01*
X148637246Y-72960243D01*
X148670500Y-72750287D01*
X148670500Y-72537713D01*
X148637246Y-72327757D01*
X148571557Y-72125588D01*
X148475051Y-71936184D01*
X148475049Y-71936181D01*
X148475048Y-71936179D01*
X148350109Y-71764213D01*
X148236569Y-71650673D01*
X148203084Y-71589350D01*
X148208068Y-71519658D01*
X148249940Y-71463725D01*
X148280915Y-71446810D01*
X148412331Y-71397796D01*
X148527546Y-71311546D01*
X148613796Y-71196331D01*
X148664091Y-71061483D01*
X148670500Y-71001873D01*
X148670499Y-69206128D01*
X148664091Y-69146517D01*
X148652123Y-69114430D01*
X148613797Y-69011671D01*
X148613793Y-69011664D01*
X148527547Y-68896455D01*
X148527544Y-68896452D01*
X148412335Y-68810206D01*
X148412328Y-68810202D01*
X148277482Y-68759908D01*
X148277483Y-68759908D01*
X148217883Y-68753501D01*
X148217881Y-68753500D01*
X148217873Y-68753500D01*
X148217864Y-68753500D01*
X146422129Y-68753500D01*
X146422123Y-68753501D01*
X146362516Y-68759908D01*
X146227671Y-68810202D01*
X146227664Y-68810206D01*
X146112455Y-68896452D01*
X146112452Y-68896455D01*
X146026206Y-69011664D01*
X146026202Y-69011671D01*
X145975908Y-69146517D01*
X145969501Y-69206116D01*
X145969501Y-69206123D01*
X145969500Y-69206135D01*
X130889424Y-69206135D01*
X130889423Y-69206123D01*
X130888562Y-69198116D01*
X130884091Y-69156517D01*
X130833796Y-69021669D01*
X130833795Y-69021668D01*
X130833793Y-69021664D01*
X130747547Y-68906455D01*
X130747544Y-68906452D01*
X130632335Y-68820206D01*
X130632328Y-68820202D01*
X130497482Y-68769908D01*
X130497483Y-68769908D01*
X130437883Y-68763501D01*
X130437881Y-68763500D01*
X130437873Y-68763500D01*
X130437864Y-68763500D01*
X128642129Y-68763500D01*
X128642123Y-68763501D01*
X128582516Y-68769908D01*
X128447671Y-68820202D01*
X128447664Y-68820206D01*
X128332455Y-68906452D01*
X128332452Y-68906455D01*
X128246206Y-69021664D01*
X128246202Y-69021671D01*
X128195908Y-69156517D01*
X128189501Y-69216116D01*
X128189500Y-69216135D01*
X126829473Y-69216135D01*
X126955154Y-69143573D01*
X127184002Y-68967971D01*
X127387971Y-68764002D01*
X127563573Y-68535154D01*
X127574986Y-68515387D01*
X127707799Y-68285346D01*
X127707801Y-68285343D01*
X127818188Y-68018844D01*
X127892846Y-67740217D01*
X127930497Y-67454228D01*
X127930497Y-67165772D01*
X127892846Y-66879783D01*
X127818188Y-66601156D01*
X127707801Y-66334657D01*
X127680437Y-66287261D01*
X127563576Y-66084850D01*
X127555676Y-66074555D01*
X127387971Y-65855998D01*
X127387969Y-65855996D01*
X127387966Y-65855992D01*
X127184007Y-65652033D01*
X127184002Y-65652029D01*
X126976589Y-65492874D01*
X126935388Y-65436448D01*
X126931233Y-65366702D01*
X126965445Y-65305781D01*
X127027163Y-65273029D01*
X127052077Y-65270500D01*
X149807923Y-65270500D01*
X149874962Y-65290185D01*
G37*
%TD.AperFunction*%
%TD*%
M02*
